<svg viewBox="0 0 1254 687" fill="none" xmlns="http://www.w3.org/2000/svg"><path d="M354.326 192c0 52.135-47.846 94.5-107 94.5s-107-42.365-107-94.5 47.846-94.5 107-94.5 107 42.365 107 94.5z" fill="#F8F8F8" stroke="#000"/><path d="M248.194 290.935c0 49.939 13.337 102.159-2.176 151.798-4.137 13.241-4.351 32.365-4.351 46.409 0 23.685-1.501 46.991-2.175 70.582-.12 4.194-15.333 15.832-18.371 20.304-10.13 14.914-21.406 29.337-29.972 45.201-5.407 10.012-11.621 36.326-10.394 10.152.562-11.988 11.681-23.475 20.546-30.94 9.777-8.233 20.504-15.943 32.269-20.788 4.911-2.022 17.799-15.824 21.15-14.986 2.01.503 10.018 13.667 11.119 14.986 11.165 13.375 21.792 27.982 35.17 39.279 8.335 7.039 17.803 12.728 25.501 20.425m-78.316-219.72c-67.99-26.363-141.709-37.78-213.194-50.035" stroke="#020202" stroke-width="3" stroke-linecap="round"/><path d="M252.545 427.988c18.311-7.121 33.778-23.968 51.244-33.236 38.796-20.586 80.518-31.995 122.791-42.904M191.632 147.356c-16.362 6.293-31.793 53.56-11.844 63.934 10.232 5.32 25.912 4.509 37.224 3.021 23.718-3.121 26.831-19.874 26.831-40.729 0-13.149.682-30.618-12.448-38.071-10.949-6.214-35.06-9.199-47.498-4.592-4.439 1.644-16.777 23.857-10.393 25.017 13.617 2.476 28.184 4.472 42.058 4.472" stroke="#020202" stroke-width="3" stroke-linecap="round"/><path d="M241.667 171.286c6.612 34.712 29.453 45.684 63.934 45.684 9.749 0 21.052 3.639 25.743-6.285 9.54-20.18 10.394-41.46 10.394-63.329 0-35.372-26.818-34.807-54.386-34.807-34.496 0-52.211 31.027-52.211 63.088m-47.86-28.281c-2.668 2.334-5.883 30.596 1.088 31.06 5.359.358 5.904-30.221-2.78-28.885-4.637.714-7.009 7.515-7.009 12.207 0 3.92.671-2.19 1.208-3.263 3.268-6.536 8.726 8.75 9.669 10.635" stroke="#020202" stroke-width="3" stroke-linecap="round"/><path d="M276.475 160.408c.546 4.645 9.522 11.665 14.261 8.219 12.932-9.405-10.844-16.702-15.107-11.965-2.192 2.434-1.33 16.203-1.33 14.624 0-2.889-.078-14.617 0-13.053.205 4.1 4.071 22.786 10.756 14.986 3.409-3.976 2.445-23.938.121-21.15-3.057 3.669-1.314 16.257-.483 12.207 1.844-8.99.483-12.95.483-1.692M159 223.496c17.668 1.767 33.063 19.541 50.036 21.755 12.576 1.64 25.958 2.175 38.674 2.175h55.233c29.142 0 43.628-10.473 67.076-26.105" stroke="#020202" stroke-width="3" stroke-linecap="round"/><path d="M152.474 232.198c21.91 14.483 43.679 30.11 67.922 40.367 15.84 6.701 31.251 14.054 46.652 21.754 5.772 2.886 11.91 7.284 18.612 7.493 22.99.719 35.6-.159 51.727-17.887 22.158-24.357 43.153-52.015 56.562-82.183" stroke="#020202" stroke-width="3" stroke-linecap="round"/><path d="M256.896 251.777c.652 11.751 10.694 18.659 20.666 22.721 11.011 4.486 9.79-1.329 9.79-10.635 0-10.569 3.421-7.039 5.318 1.088 1.03 4.417-.885 17.126 4.35 18.974 3.978 1.404 15.99 6.416 16.437 0 .84-12.039 0-24.407 0-36.499m366.177 94.246c5.493.687 8.42 64.997 8.581 72.878.513 25.163.121 50.368.121 75.536v21.029c0 7.576.163-15.152.483-22.721 2.305-54.546 10.394-107.687 10.394-162.433 0-13.414-4.357-21.284-9.669-33.357-2.504-5.691-7.735-16.579-7.735-22.722 0-16.33 83.669-8.701 95.72-8.701 20.707 0 38.34-2.893 58.495-7.494 27.167-6.201 54.211-6.951 81.942-8.218 64.792-2.96 131.034 3.462 195.304-5.559 13-1.825 9.45 63.829 9.67 71.548.76 26.626 3.57 52.44 5.8 78.92 1.65 19.569 2.75 39.349 3.27 58.979.28 10.711 3.47 30.03-1.82 39.762-9.78 18.013-50.64 18.471-67.19 20.546-24.19 3.032-49.13 3.219-73.123 7.372-49.308 8.534-96.579 22.601-146.964 22.601h-94.874c-14.77 0-28.684-4.351-43.267-4.351-5.155 0-23.989-6.526-21.996-6.526 17.495 0 34.792 2.175 52.211 2.175 51.503 0 103.365 5.93 154.698 4.351 7.291-.224 8.209-2.93 3.626-8.218-10.271-11.851-17.305-28.141-25.259-41.576-6.762-11.419-20.584-30.528-18.733-44.959 1.126-8.786 39.76-5.318 46.047-5.318h56.199c15.073 0 18.673 45.39 20.666 58.012 1.677 10.619 3.263 21.26 3.263 32.028 0 8.497-.967-.148-1.692-3.505-5.402-25.047-14.57-50.469-15.711-76.141-.618-13.9-8.481-15.127-20.063-14.624-16.732.728-33.259 3.623-50.035 4.11-5.449.157-22.414-3.073-26.105 2.296-2.974 4.325-10.394-.664-10.394 5.559 0 17.321.942 34.112 2.055 51.365 1.092 16.938 4.402 34.094 6.163 51.123.08.77.484 12.918.484 5.801v-45.926c0-11.97-1.314-24.809 1.692-36.499 2.524-9.816 7.172 12.502 7.251 12.811 4.246 16.509 9.216 32.275 10.636 49.31" stroke="#020202" stroke-width="3" stroke-linecap="round"/><path d="M618.721 291.637c7.614-6.979 17.309-12.436 25.864-17.887 54.314-34.605 110.698-66.201 163.763-102.729 37.904-26.092 72.057-58.77 107.201-88.468 8.487-7.172 27.926-35.042 41.092-28.281 17.38 8.925 32.535 21.408 47.859 33.357 21.16 16.494 43.97 31.212 63.81 49.31 24.7 22.522 49.37 44.051 75.3 65.142 11.97 9.737 24.58 18.065 37.34 26.71 3.74 2.531 17.98 10.059 5.68 10.514-46.83 1.735-94.04-2.705-140.8.605-28.8 2.039-58.127 8.179-86.772 12.086-27.737 3.782-57.26.056-85.205.604-50.846.997-103.384 4.43-153.732 10.756-13.671 1.718-28.949 2.973-42.421 6.647-3.786 1.033-6.617 3.933-10.635 4.23-6.518.483-31.581 5.391-34.082 10.394-.904 1.808 4.022.464 6.043.484 5.881.057 11.764.083 17.645 0 47.391-.674 95.043-3.777 142.25-7.856 63.901-5.522 127.525-20.425 191.802-20.425h115.297M409.177 30.583h-47.618c-2.923 0-18.474-2.175-21.513.484-3.658 3.2-.958 26.568.483 31.423 2.977 10.026 11.406 16.864 15.47 26.347 4.991 11.645 26.951.426 35.774-1.692m39.158-39.158c18.238 20.94 35.39 43.267 52.211 65.263m4.351-45.684c-22.437 23.869-42.176 54.318-54.386 84.842m124-115.298c-2.473 22.26-11.269 46.664-19.579 67.438m19.579-56.561c8.619 0 18.362-1.412 26.831 0 10.637 1.773-4.513 48.346-7.252 56.562m50.035-47.86c6.439 9.469 19.943 14.138 27.193 1.087 5.264-9.474-25.546-13.548-31.664-3.988-6.081 9.5-11.448 30.582-3.747 40.85 11.396 15.195 39.901 7.043 53.903 1.209m34.807-47.86c0 22.52-.286 46.347-2.659 68.889-.607 5.763 1.746 20.782-2.78 17.162-3.406-2.725-1.087-18.167-1.087-21.996V62.248c0-5.677-2.407-18.449 1.329-22.6 9.33-10.367 22.018 1.23 28.885 8.097 25.634 25.634-8.667 39.4-32.39 39.4m67.439-43.509c0 23.253 2.095 47.052-4.351 69.614m-2.175 28.281c-4.129.516-2.176 14.417-2.176-2.175" stroke="#020202" stroke-width="3" stroke-linecap="round"/><path d="M768.827 533.112c-5.858-12.554-20.812-20.622-25.138-33.599-3.738-11.214-1.586-31.648 9.669-37.708 12.923-6.959 27.956-7.577 41.575-11.36 10.499-2.917-4.351-48.529-6.406-53.903-4.562-11.932-12.194-25.953 4.351-30.819 17.234-5.069 15.243-10.068 24.534-24.292.932-1.426 14.327-22.71 17.162-20.305 6.666 5.656 5.191 28.721 5.56 36.016.132 2.619-1.885 22.955 1.45 25.38 3.955 2.877 16.54-3.965 21.875-2.659 25.323 6.202 25.445 49.94 31.303 68.769 4.106 13.198 10.579 35.725-1.934 45.805-9.76 7.862-18.413 15.559-29.006 22.48-10.956 7.157-22.783 10.931-34.324 18.249-18.027 11.432-30.461 14.153-45.08-2.659-9.61-11.052-21.483 13.386-26.468 20.184m287.16-304.563c-12.51 0-24.44 1.524-36.74 3.867-18.282 3.482-17.036-3.024-20.79-20.908-3.118-14.86-3.384-29.624-3.384-44.718 0-9.579 3.88 1.823 8.702 5.439 23.602 17.705 30.872-.626 38.912-23.084 2.14-5.969 2.17-31.106 10.16-27.314 16.22 7.706 34.5 22.229 51.48 7.856 7.11-6.016 25.1-42.231 30.46-21.513 2.19 8.486 8.39 22.02 7.85 30.94-.98 16.21-5.5 31.945-6.04 48.343-.25 7.76 1.91 14.136 2.06 21.513.46 22.601-25.34 1.644-37.95 10.273-4.83 3.301-8.35 10.131-9.91 15.591-1.23 4.289-9.55 2.417-13.06 2.417m-32.63 261.053c-1.07-10.154-3.26-21.29-1.93-31.544.85-6.57 7.72-23.838 15.95-23.446 16.79.799 37.73 19.162 52.94 25.984 16.55 7.43 15.25-1.167 17.4-16.92 1.59-11.654-1.66-32.725 4.23-43.146 1.99-3.52 25 5.579 28.64 6.284 8.21 1.59 17.34 4.523 24.66-1.087 3.16-2.42 15.77-21.711 17.4-13.295 2.18 11.203 5.08 22.332 6.89 33.599 2.49 15.483-5.12 12.662-17.64 16.92-12.81 4.355-13.82 18.498-25.75 23.688-41.02 17.857-79.62 18.612-122.79 18.612" stroke="#F00606" stroke-width="3" stroke-linecap="round"/><path d="M781.88 535.287c-14.537-4.361-2.429-31.239 4.351-36.983 9.289-7.87 21.013-13.489 32.148-18.128 7.576-3.157 21.863-4.385 21.392-15.229-.506-11.631-8.336-22.845-12.207-33.598-3.62-10.056-4.351-19.403-4.351-29.973 0-7.576 3.452-23.755 8.823-29.127 4.869-4.869 24.652 36.544 26.71 42.905 4.422 13.668 1.165 31.418 1.45 45.684.111 5.565 2.406 11.266 1.692 16.8-1.694 13.128-20.604 25.156-29.973 32.752-8.935 7.244-19.93 7.897-30.456 11.844m245.821-10.877c9.74-5.061 47.63-32.933 54.51-17.887 1.47 3.213 4.64 17.294 10.15 15.349 12.43-4.385 17.46-20.286 22-31.181 6.15-14.761 29.87-11.194 42.9-14.624 1.05-.276 2.29 16.106 5.32 7.009M1023.35 232.9c0 1.405.08 11.292-1.08 6.889-2.62-9.943-5.44-21.133-5.44-31.423 0-14.044 24.09-27.885 37.46-22.359 3.68 1.518 15.25 12.391 18.25 11.723 4.98-1.105 9.39-13.61 11-16.799 5.5-10.857 10.76-21.762 17.53-31.907 10.26-15.4-.01 45.904 14.98 36.62 10.63-6.576 12.42-10.612 11.24 5.197-.82 10.959-1.69 19.329-6.52 29.006-8.13 16.262-35.18 16.796-51.37 18.37-14.43 1.403-26.25.466-39.04 8.219-11.35 6.883-18.55 11.401-32.144 10.394-8.693-.644-12.832-11.293-16.679-17.887-9.225-15.816 19.383-15.748 28.763-16.92" stroke="#F0D906" stroke-width="3" stroke-linecap="round"/><path d="M1116.9 511.357c0-11.121 4.65-49.423 22.96-33.357 9.26 8.122 5.86 17.655 20.18 8.581 4.21-2.665 6.52-3.505 11.24-3.505m-382.874 34.807c0-25.844 15.011-41.853 27.193-63.934 7.719-13.99 4.515-29.112 5.439-44.355.417-6.875 21.798-11.59 26.71-11.723 17.802-.481 3.455 57.898 1.813 68.164-4.627 28.917-6.881 50.322-31.665 71.186-8.383 7.057-38.435 20.627-28.039 17.161 9.754-3.251 20.877-3.331 31.06-3.746 11.763-.48 5.719 10.996 11.482 10.756 4.274-.178 12.868-8.176 16.92-10.877m193.611-311.089c-10.68-3.672-34.35-27.769-32.15-40.608 1.8-10.439 17.78-19.069 27.8-20.183 19.33-2.148 38.48 36.277 48.59 48.585 6.16 7.499 17.31-14.871 18.61-17.162 5.14-9.048 8.08-15.572 11-25.38.87-2.937.99-11.158 2.78-14.383 1.1-1.99 15.36-8.063 18.13-9.91 3.08-2.057 3.86 41.276 2.65 48.222-1.17 6.734-6.12 20.89-13.53 22.238-8.63 1.57-21.42 27.615-27.32 34.687" stroke="#F19811" stroke-width="3" stroke-linecap="round"/><path d="M370.947 275.809c4.189-7.68 18.681-12.763 26.106-17.403m15.228 0c7.84.941 6.86 8.477 14.261 8.702 7.941.24 9.613-4.289 11.844-11.603 4.908-16.088 16.036-34.519 15.228-51.485-.258-5.431-8.417-6.378-12.569-6.527-6.111-.218-5.415 3.838-7.01 9.185-3.533 11.848-13.74 17.6-13.052 29.973.176 3.17 5.406 7.855 8.701 6.043 5.835-3.209 6.128-13.645 8.702-19.095 2.43-5.145 8.402-11.705 8.702-17.404.234-4.439-2.176 13.603-2.176 16.437 0 7.994-3.19 27.05.484 34.807 2.642 5.577 16.7 3.142 21.271 3.142" stroke="#0F0F0E" stroke-width="3" stroke-linecap="round"/><path d="M221.719 108.546c-20.155-14.659-47.86 59.561-47.86 74.69 0 1.529.853 5.758 1.45 4.351 6.485-15.271 12.487-30.51 19.821-45.443 1.075-2.188 11.155-22.275 12.569-25.138 1.885-3.815 9.572-11.603 5.318-11.603-4.806 0-27.559 40.594-29.248 43.026-12.448 17.925-25.15 35.649-38.312 53.056-4.154 5.495-8.943 10.997-11.481 17.525-.749 1.927 3.856-1.811 5.197-3.384 21.833-25.612 43.615-51.268 65.747-76.624 5.161-5.913 10.223-11.919 15.59-17.645 3.621-3.864 9.315-9.77 4.351-.484-20.651 38.637-47.64 74.605-73.24 109.981-19.626 27.121-39.907 53.168-55.836 82.667-1.58 2.925 9.452-21.305 11.119-24.413 16.291-30.381 33.228-57.53 43.025-90.886 4.147-14.118 19.885-54.419 10.877-42.783-25.582 33.044-43.942 77.594-63.45 113.969-24.672 46.003-48.437 92.534-73.844 138.141-7.783 13.969-7.035 11.476-1.934.966 17.973-37.03 2.323-3.315 21.03-42.542.13-.273 16.386-41.549 19.82-41.091 5.75.766.299 11.61 0 17.403-.445 8.613-.824 17.27-1.571 25.864-1.33 15.297 9.06-29.436 15.47-43.388 20.224-44.018 49.171-83.274 69.735-126.901 7.84-16.633 1.713-12.141-8.34-3.868-8.187 6.738-20.639 19.392-27.797 27.918-2.79 3.324-6.247 7.751-5.68 12.57.177 1.503 1.322-2.724 1.934-4.109 3.579-8.113 6.218-13.321 11.118-21.271 4.577-7.425 55.669-83.59 59.221-81.459 11.038 6.623 21.259-33.421 31.302-15.107 2.191 3.995 11.466 27.436 16.316 18.975 7.131-12.442 12.566-26.183 17.404-39.642.153-.425 3.96-18.5 7.976-11.844 15.851 26.267 29.449 53.925 48.343 78.437 9.154 11.875 5.274-25.921 7.01-29.61 1.943-4.129 6.484 6.474 9.186 10.152 5.586 7.605 11.645 14.828 17.161 22.479 2.917 4.046 2.914-3.059 3.626-5.076 2.791-7.906 6.622 15.508 8.46 23.689 4.53 20.155 8.821 40.501 14.745 60.308 7.755 25.931 3.825-18.354 3.746-19.579-.696-10.829 1.492-37.224-4.955-46.893-2.369-3.554-.241 8.54-.241 12.811V148.67c0-6.206.268 12.41.483 18.613.187 5.399.799 21.798 1.209 28.039.053.813.261 3.225.362 2.417.26-2.079.08-4.19.121-6.285.282-14.553.976-28.998 2.175-43.509.342-4.13 1.321-14.941 1.934-20.304.092-.801.155 1.611.121 2.417-1.659 39.815-2.055 79.562-2.055 119.408v-14.865c0-39.279-2.055 78.572-5.317 117.715-4.487 53.839-1.209-108.045-1.209-162.07 0-11.119-.15-22.239 0-33.357.048-3.549.282 7.092.484 10.635 1.749 30.823 6.193 60.781 13.052 90.886 3.901 17.118 7.825 34.542 12.932 51.364.78 2.571 1.416 5.407 1.692 1.813.199-2.59.121-12.76.121-13.536v-87.018 129.802c0 55.22-2.912-110.623-10.394-165.334-3.638-26.601-20.925 20.007-22.842 27.676-2.654 10.617-2.851 4.396-5.439-3.988-4.94-16.008-10.735-31.804-15.107-47.981-3.249-12.02-5.799-18.044-12.448-28.401-11.066-17.237-34.429-14.305-52.936-10.636-8.051 1.597-15.416 3.66-22.601 7.252-12.693 6.347-17.573 8.624-16.92-6.406.118-2.699 1.594-9.961-.362-8.097-13.772 13.115-26.86 26.311-42.059 37.949-5 3.829-24.074 21.109-32.39 20.304-3.316-.32 7.485-20.124 7.735-20.545 16.873-28.518-6.637 18.366-9.185 25.742-3.62 10.478 2.445-.632 4.23-2.417 7.353-7.353 4.426 20.55 3.988 30.94-1.038 24.662-2.792 49.394-6.285 73.844-2.573 18.017-1.901-7.136-1.933-10.635-.081-8.656-.093-10.685-5.076-1.451-7.144 13.238-13.938 26.699-19.096 40.85-5.816 15.957 3.443-16.679 4.351-20.183 5.095-19.651-2.42 34.005 6.526 25.985 7.707-6.91 24-35.513 20.546-10.394-1.398 10.171-10.664 38.735-4.592 30.456 7.175-9.784 10.524-29.242 13.777-40.367 3.194-10.92 8.702-25.379 8.702-37.103 0-15.22-6.527 29.877-7.251 45.08-.107 2.232-.484 38.671-.484 35.17 0-10.063 3.162-25.41-.362-34.807-2.469-6.584-4.002 13.984-2.78 20.908.59 3.343 15.554-22.729 17.162-25.864 4.854-9.465 3.384-4.341 3.384 2.901 0 15.284-.485 30.651 0 45.926.248 7.806 1.756 5.584 5.318.242 8.743-13.116 16.465-26.787 23.084-41.092 7.274-15.721 4.23 5.245 4.23 10.515 0 1.391-1.106 28.063.846 21.512 3.784-12.705 7.565-25.403 11.481-38.07 3.526-11.404 6.104-20.611 3.142-2.175-2.294 14.281-3.521 29.439-6.768 43.509-2.431 10.534 1.101-21.595 1.692-32.39.438-7.986.484-13.016.484-1.934 0 9.595-.925 19.693 0 29.248.597 6.169 2.209-12.393 5.076-17.887.662-1.269 1.45 11.416 1.45 13.052" stroke="#4A0404" stroke-opacity=".83" stroke-width="3" stroke-linecap="round"/><path d="M263.052 306.511c4.145 6.828 5.347 22.707 14.141 11.844 10.038-12.4 6.932 3.566 11.602-1.45 7.447-7.999 11.736-18.432 18.129-27.193 5.961-8.169 3.943 10.864 3.988 13.898.106 7.118 2.189 2.069 4.351-1.329 5.412-8.505 4.563 6.946 5.318 10.273 2.545 11.221 8.638 5.986 12.811-1.209 1.515-2.612 5.801-16.414 5.801-14.503 0 6.579-2.008 57.366 7.735 32.753.405-1.023 7.694-19.868 9.185-15.953 2.083 5.467-3.454 21.356.967 17.524 6.946-6.02 11.31-18.52 16.074-26.347 1.656-2.721.846 8.65.846 10.394" stroke="#4A0404" stroke-opacity=".83" stroke-width="3" stroke-linecap="round"/><rect x="3.826" y="3" width="1247" height="681" rx="23.16" stroke="#000" stroke-width="6"/></svg>