<svg fill="none" height="800" width="2000" xmlns="http://www.w3.org/2000/svg"><clipPath id="a"><path d="M0 0h2000v800H0z"/></clipPath><mask id="b" height="1000" maskUnits="userSpaceOnUse" width="1340" x="330" y="-100"><path d="M1670-99.19H330v998.38h1340z" fill="#fff"/></mask><mask id="c" height="32" maskUnits="userSpaceOnUse" width="42" x="777" y="707"><path d="M812.087 707.101c3.74 3.332 6.06 7.983 6.06 13.125 0 10.156-9.049 18.401-20.194 18.401-11.146 0-20.195-8.245-20.195-18.401 0-5.142 2.32-9.793 6.061-13.125z" fill="#fff"/></mask><mask id="d" height="38" maskUnits="userSpaceOnUse" width="41" x="831" y="701"><path d="M851.804 738.623c11.153 0 20.194-8.237 20.194-18.397 0-10.161-9.041-18.397-20.194-18.397s-20.194 8.236-20.194 18.397c0 10.16 9.041 18.397 20.194 18.397z" fill="#fff"/></mask><g clip-path="url(#a)"><path d="M0 0h2000v800H0z" fill="#001d3d"/><g mask="url(#b)"><path d="M1707.83 643.734H326.545v255.765H1707.83z" stroke="#fff" stroke-width=".5"/><path clip-rule="evenodd" d="M1495.8 409.796l.06-.016c-.66-6.027-.93-12.253-.95-17.995l2.17 41.211-104.67-.08 3.79-55.136a341.66 341.66 0 0 0 11.89 7.162l-11.57-.28-.32 3.199c11.41 5.039 27.82 11.673 45.07 16.622 19.07 5.471 39.16 8.885 54.59 5.796z" fill="#fff" fill-rule="evenodd" stroke="#fff" stroke-width=".5"/><path clip-rule="evenodd" d="M1495.8 409.796l-.03.008.03-.008.06.483c-15.43 3.089-35.52-.325-54.59-5.796-17.25-4.949-33.66-11.583-45.07-16.622l.32-3.199 97.59 2.357.8 10.654c.02 3.87.27 8.052.89 12.123zm-13.29 2.001l.19.001-.41-.005zm-.2-.004l.19.003-.42-.007zm-.21-.004l.2.004-.42-.008zm-.21-.003l.19.004-.39-.01zm-.2-.005l.19.004-.39-.01zm-.21-.006l.19.005-.38-.012zm-.2-.006l.19.005-.38-.012zm-.21-.007l.19.005-.37-.012zm-.2-.008l.18.006-.36-.013zm-.22-.008l.19.007-.35-.015zm-.19-.01l.17.008-.34-.015zm-.22-.01l.18.008-.32-.014zm-.21-.01l.18.01-.31-.018zm-.21-.011l.18.01-.31-.018zm-.19-.011l.16.009-.3-.017zm-.22-.013l.16.011-.28-.018zm-.2-.012l.16.01-.29-.019zm-.22-.013l.16.009-.26-.017zm-.2-.016l.16.011-.27-.017zm-.22-.014l.16.011-.25-.018zm-.2-.015l.15.011-.25-.019zm-.21-.017l.15.012-.24-.019zm-.21-.016l.14.012-.22-.019zm-.21-.017l.14.011-.22-.018zm-.2-.018l.13.011-.21-.017zm-.22-.019l.13.012-.2-.018zm-.21-.019l.12.011-.18-.016zm-.21-.02l.12.011-.17-.016zm-.2-.02l.1.011-.16-.016zm-.22-.02l.11.009-.16-.015zm-.2-.023l.09.011-.15-.015zm-.22-.022l.09.011-.13-.015zm19.2-1.138c-.23.089-.45.176-.67.259l-.67.247c.44-.16.89-.329 1.34-.506z" fill="#001d3d" fill-rule="evenodd"/><path d="M1495.8 409.796l-.03.008zm0 0l.06.483c-15.43 3.089-35.52-.325-54.59-5.796-17.25-4.949-33.66-11.583-45.07-16.622l.32-3.199 97.59 2.357.8 10.654c.02 3.87.27 8.052.89 12.123zm-13.29 2.001l.19.001-.41-.005zm-.2-.004l.19.003-.42-.007zm-.21-.004l.2.004-.42-.008zm-.21-.003l.19.004-.39-.01zm-.2-.005l.19.004-.39-.01zm-.21-.006l.19.005-.38-.012zm-.2-.006l.19.005-.38-.012zm-.21-.007l.19.005-.37-.012zm-.2-.008l.18.006-.36-.013zm-.22-.008l.19.007-.35-.015zm-.19-.01l.17.008-.34-.015zm-.22-.01l.18.008-.32-.014zm-.21-.01l.18.01-.31-.018zm-.21-.011l.18.01-.31-.018zm-.19-.011l.16.009-.3-.017zm-.22-.013l.16.011-.28-.018zm-.2-.012l.16.01-.29-.019zm-.22-.013l.16.009-.26-.017zm-.2-.016l.16.011-.27-.017zm-.22-.014l.16.011-.25-.018zm-.2-.015l.15.011-.25-.019zm-.21-.017l.15.012-.24-.019zm-.21-.016l.14.012-.22-.019zm-.21-.017l.14.011-.22-.018zm-.2-.018l.13.011-.21-.017zm-.22-.019l.13.012-.2-.018zm-.21-.019l.12.011-.18-.016zm-.21-.02l.12.011-.17-.016zm-.2-.02l.1.011-.16-.016zm-.22-.02l.11.009-.16-.015zm-.2-.023l.09.011-.15-.015zm-.22-.022l.09.011-.13-.015zm19.2-1.138c-.23.089-.45.176-.67.259l-.67.247c.44-.16.89-.329 1.34-.506z" stroke="#fff" stroke-width=".5"/><path clip-rule="evenodd" d="M1474.58 225.528c6.41 2.187 12.73 5.034 18.79 6.901l-127.14 146.673s1.26 4.206 2.11 11.777c-2.15 4.505-8.7 22.382-13.58 40.488-1.1.746-2.05 1.56-2.83 2.413-5.04-4.206-8.83-5.047-6.73-22.712 2.1-17.666 28.19-149.314 44.59-173.709 2.56-3.815 6.41-6.993 11.13-9.618 3.5 3.615 8.89 6.139 17.1 5.931 7.1-3.84 16.08-6.044 22.02-7.173.55.439 1.13.847 1.73 1.232l.1.063c4.17 2.678 9.3 4.249 14.84 4.249 3.86 0 7.51-.759 10.78-2.128l.08-.033c2.62-1.091 4.99-2.567 7.01-4.354zm43.45 3.644c3.98 4.138 7.16 9.356 8.89 15.758 5.47 20.189 5.47 147.21-.84 165.296-6.31 18.087-13.46 22.713-13.46 22.713l-16.11-10.929-1.6-30.225c.02 5.742.29 11.968.95 17.995l-.06.016c-.62-4.07-.87-8.253-.89-12.123l-.8-10.654-70.13-1.694h-28.29l-2.33 33.633c-20.4-8.512-19.13-28.079-17.45-35.65 1.4-6.282 92.09-113.213 122.93-149.432 6.98 1.389 13.49.724 19.19-4.704z" fill="#001d3d" fill-rule="evenodd" stroke="#fff" stroke-width=".5"/><path clip-rule="evenodd" d="M1493.37 232.429c1.79.582 3.56 1.061 5.3 1.414l.17.033c-30.84 36.218-121.53 143.15-122.93 149.432-1.63 7.334-2.86 25.925 15.61 34.821l1.84.829c-1.89 23.655-3.57 63.192-3.57 63.192s-31.13 3.364-39.12-9.674c-3.77-6.146-.62-23.734 4.09-41.109l.23-.848c4.85-17.813 11.24-35.205 13.35-39.64-.85-7.571-2.11-11.777-2.11-11.777z" fill="#fff" fill-rule="evenodd" stroke="#fff" stroke-width=".5"/><path clip-rule="evenodd" d="M1466.7 223.284c2.57.529 5.13 1.295 7.68 2.172l.2.071c-2.04 1.803-4.44 3.286-7.09 4.374v.014l-2.5.904 2.5-.918zm-32.96-5.428c3.24-.51 6.51-.924 9.76-1.244-.02 2.612-.23 5.04-.65 7.162-2.57-1.307-6.09-3.339-9.11-5.918zm38.87-2.737c-1.36 3.197-3.34 4.723-6.19 5.774l-.68-5.699z" fill="#001d3d" fill-rule="evenodd" stroke="#fff" stroke-width=".5"/><path clip-rule="evenodd" d="M1462.49 187.736l5 42.179-2.5.905-.09.023-2.29.576-.71.137-1.85.274-.75.086-2.59.127-2.03-.073-.65-.066-1.34-.144-.72-.125-1.22-.22-.71-.171-1.19-.305-.63-.199-1.22-.406-.51-.204-1.28-.531-.38-.178-1.37-.687-.2-.114-1.49-.889c.78-1.932 1.28-4.375 1.54-7.15.02-1.635-.02-3.556-.12-5.634l.08.071c-.49-6.924-1.67-16.374-3.18-21.324 7.97.761 15.8-1.471 22.4-5.958z" fill="#001d3d" fill-rule="evenodd" stroke="#fff" stroke-width=".5"/><path clip-rule="evenodd" d="M1429.12 190.683a28.43 28.43 0 0 1-3.32-1.808l-.15-.095c-12.86-8.136-19.75-24.929-15.92-42.061 1.79-8.093 5.73-15.105 10.98-20.445a37.954 37.954 0 0 1 4.32-3.8l17.8 7.205s-5.04-10.496 14.64-12.505l.08.027c.96.565 16.29 10.196 18 48.265l.02.436c.1 2.184.14 4.459.14 6.829-3.17 6.178-7.73 11.293-13.1 14.92l-.12.085c-5.78 3.926-12.49 6.126-19.42 6.104l-2.98-.146-.13-.01a27.859 27.859 0 0 1-3.94-.6 30.42 30.42 0 0 1-6.41-2.181z" fill="#001d3d" fill-rule="evenodd" stroke="#fff" stroke-width=".5"/><path clip-rule="evenodd" d="M1462.49 187.736l.12-.085c5.37-3.627-.8-9.583 7.42-16.602 0 0-12.06-6.025-17.2-21.026-6.96-20.316 5.47-32.38 4.72-32.823l-.05-.03c3.18-1.327 6.29-1.91 9.33-1.903l.28.003c21.06.308 35.56 24.96 29.99 37.121 6.31 1.893 16.72 8.202 12.3 16.088 9.46 3.47 8.83 25.236 4.42 30.599 10.72-.631 19.56 15.457 4.24 30.071l-.09.086c-5.69 5.371-12.17 6.025-19.13 4.641l-.17-.033a48.163 48.163 0 0 1-5.3-1.414l-.14-.044c-6.01-1.884-11.34 2.239-17.7.083 0 0-21.6-5.943-19.23-24.838 1.06-8.368 6.19-19.894 6.19-19.894zm-28.72 30.149c3.02 2.564 6.51 4.592 9.08 5.889l.04.026c2.08 1.085 3.52 1.671 3.52 1.671s-1.58.179-4.12.64l-2.08.353-.17.035c-5.94 1.129-14.92 3.333-22.02 7.173-8.21.208-13.6-2.316-17.1-5.931l-.05-.043c-7.12-7.345-6.41-19.146-5.57-21.47-5.68-3.47-4.73-7.255-1.58-11.041-31.54-22.712 8.21-39.747 8.21-39.747-13.25-20.189 9.15-23.659 18.78-29.184v.018c-5.25 5.34-9.19 12.352-10.98 20.445-3.84 17.199 3.11 34.056 16.07 42.156v.018c.59 4.815-.51 10.826 1.88 20.47.79 3.204 3.2 6.09 6.06 8.493zm-4.16-26.982c2.02.954 4.16 1.68 6.41 2.181 1.32.293 2.63.501 3.94.6l.13.01c1.75 5.736 2.77 14.364 3.1 21.252-9.02-6.919-12.38-17.723-13.58-24.043zm-4.58-68.429c.41-.309 0 0 0 0l-8.7-3.521c11.36-25.867 40.07-10.725 41.17-1.783l-.03.004c-19.68 2.009-14.64 12.505-14.64 12.505z" fill="#fff" fill-rule="evenodd" stroke="#fff" stroke-width=".5"/><path clip-rule="evenodd" d="M1474.07 150.869s8.66-2.633 10.77 2.414c2.1 5.047-4.42 13.249-4.42 13.249zm31.39 277.211s-3.38 13.894-6.33 15.997c-2.94 2.103-3.15-1.472-3.15-1.472l1.48-9.674v-10.725zm7.16 4.859s-3.18 16.606-9.28 23.967c-4.62-3.786-2.52-5.678-2.52-5.678s5.91-18.534 4.64-23.148c5.66 1.486 7.16 4.859 7.16 4.859zm-165.45-3.353s-3.65 7.379-1.97 13.268c1.69 5.888 3.37 8.622 3.37 8.622l2.54-4.833-1.07-7.996 1.89-4.867z" fill="#001d3d" fill-rule="evenodd" stroke="#fff" stroke-width=".5"/><path d="M1383.91 358.714l12.4-88.623" stroke="#fff" stroke-width=".5"/><path clip-rule="evenodd" d="M1452.45 556.318l27.76 11.343 16.87-134.665-44.01-.034zm-57.04.895c-3.41-10.901-5.88-20.161-6.46-25.643-1.64-15.437.98-62.215 3.47-98.654l43.9.034c-6.23 40.462-13.7 93.482-11.41 101.144.74 2.463 1.86 8.027 3.16 15.393zm87.66 57.034l-3.15 28.706-29.66-.315-5.99-28.076z" fill="#001d3d" fill-rule="evenodd" stroke="#fff" stroke-width=".5"/><path clip-rule="evenodd" d="M1424.73 696.044c2.56-10.227 10.06-37.293 20.49-49.104l.07-.088c1.58-1.811 3.25-3.249 4.97-4.214 12.93.946 29.65.315 29.65.315s25.24 41.324 22.72 60.251c-12.62.631-78.87-3.154-78.87-3.154s.29-1.306.86-3.533z" fill="#001d3d" fill-rule="evenodd" stroke="#fff" stroke-width=".5"/><path clip-rule="evenodd" d="M1416.12 615.856c-6.59-17.388-14.98-40.328-20.71-58.643l32.66-7.727c2.76 15.172 6.39 37.979 9.32 56.994l5.19 34.24-14.3-27.205zm36.04-1.357l22.2-.176 5.85-46.662-27.76-11.343z" fill="#fff" fill-rule="evenodd" stroke="#fff" stroke-width=".5"/><path clip-rule="evenodd" d="M1428.28 613.515l14.3 27.205-33.23 4.34-15.46-24.92z" fill="#001d3d" fill-rule="evenodd" stroke="#fff" stroke-width=".5"/><path clip-rule="evenodd" d="M1404.55 655.578c2.94-3.969 4.8-7.912 4.8-10.518l33.23-4.34c.97 2.151 1.85 4.22 2.64 6.22-10.58 12-18.17 39.735-20.6 49.577-17.13.063-43.83.063-52.18-.353-3.6-10.53 6.66-20.568 15.42-26.271v.063h30.07v-3.363h-24.63l1.47-1.016c.55-.429 1.11-.858 1.65-1.293l.99-.845h18.84v-2.524h-16.18l1.01-1.054 1.77-2.101h12.19v-2.182z" fill="#001d3d" fill-rule="evenodd" stroke="#fff" stroke-width=".5"/><path d="M1375.2 682.026h40.1m16.41 4.581h60.57" stroke="#fff" stroke-width=".5"/><path clip-rule="evenodd" d="M1393.3 666.593h24.63v3.363h-30.07v-.063l3.51-2.12c.65-.36 1.29-.751 1.93-1.18zm6.77-5.678h16.18v2.524h-18.84c.91-.801 1.81-1.647 2.66-2.524zm4.48-5.337l-.76 1.072-.94 1.111h12.19v-2.183z" fill="#fff" fill-rule="evenodd"/><path d="M1480.4 667.224h-30.08v3.365h30.08zm-1.68-5.678h-26.08v2.524h26.08zm-1.21-5.338h-22.56v2.184h22.56z" fill="#fff"/><path clip-rule="evenodd" d="M1088.7 490.921c-8.38-6.208-18.6-17.166-17.8-33.231.58-11.709 10.68-24.818 21.9-35.893 4.12 7.034 8.12 12.766 11.94 17.509 1.87-5.299 3.3-9.1 3.3-9.1l21.54 19.744s-1.05 4.705-2.9 9.567c10.24 7.094 16.2 9.972 14.79 24.759-2.69 28.269-23.79 62.819 8.97 79.87 8.33 4.333 15.73 4.265 22.12 1.726l.16-.059 42.01 145.625h-117.57l.23-7.781.37-.148 2.91-1.205 2.83-1.164.15-.067.18-.081 3.01-1.373 2.82-1.279.13-.067.16-.074 2.99-1.535 2.69-1.38.15-.081.08-.047 1.36-.767 1.26-.72.08-.054.1-.061 1.32-.807 1.19-.741.08-.047.09-.054 1.24-.848 1.13-.76.06-.047.06-.047 1.18-.889 1.02-.774.05-.04.06-.041 1.07-.928.93-.788.03-.034.04-.033.97-.969.79-.795.03-.033.03-.027.84-1.023.66-.788.01-.02.02-.02.71-1.097.48-.754.01-.014.01-.02.57-1.245.29-.646v-.007c.23-.639.4-1.285.5-1.932l1.17-1.184c8.93-9.012 12.76-16.941 13.78-23.981 1.48-10.177-2.9-18.517-6.26-25.638-1.14-2.396-2.16-4.657-2.81-6.811l-1.41-10.096-.17-1.178-.08-.518-.74-4.819-1.53-10.083-.41-2.618-.33-2.127-.02-.067c-6.02-38.785-15.91-99.615-19.03-118.706l-.96-5.937s-2.5 1.19-5.97 3.388l-.11.073-.32.212-2.16 1.421-.4.291-.33.225 2.59-2.812c0-.002-2.6 2.836-2.6 2.836-2.67 1.865-5.56 4.18-8.23 6.87l-.2.195c-4.07 4.094-7.58 9.066-8.9 14.699z" fill="#001d3d" fill-rule="evenodd" stroke="#fff" stroke-width=".5"/><path clip-rule="evenodd" d="M1116.29 469.46c3.12 19.091 13.01 79.921 19.03 118.706l.77 4.812 2.51 16.598 1.41 10.096.06.202c.65 2.086 1.64 4.287 2.75 6.609.37.774.74 1.569 1.13 2.376.36.761.72 1.528 1.08 2.316.26.572.51 1.151.77 1.736.83 1.932 1.6 3.951 2.21 6.058l.06.188.22.815c.32 1.191.57 2.409.76 3.654l.03.276c.21 1.495.32 3.036.29 4.624-.01.552-.04 1.104-.08 1.656-.04.559-.1 1.131-.18 1.696l-.03.242c-1.01 7.048-4.84 14.976-13.78 23.982l-1.17 1.184-.5 1.932-.29.653-.58 1.265-.49.768-.73 1.117-.67.808-.87 1.05-.82.828-1.01 1.002-.96.822-1.13.969-1.07.814-1.24.936-1.19.807-1.33.902-1.27.788-1.42.868-1.34.774-1.44.814-2.84 1.461-3.15 1.609-2.95 1.346-3.19 1.454-2.98 1.231-3.28 1.353c-11.86 4.691-22 7.552-22 7.552s-20.99-16.234-18.4-17.049c9.84-65.435 27.82-186.663 31.7-203.217l.07-.286c1.37-5.524 4.84-10.405 8.84-14.435l.2-.195c2.67-2.69 5.56-5.005 8.23-6.87l.34-.249 2.56-1.712.43-.285.52-.326c3.2-1.99 5.45-3.062 5.45-3.062z" fill="#001d3d" fill-rule="evenodd" stroke="#fff" stroke-width=".5"/><path clip-rule="evenodd" d="M1060.33 698.677s-24.9 3.378-29.95 3.378-10.77-1.682-14.47 5.048c-3.7 6.731 53.82-.383 53.82-.383z" fill="#001d3d" fill-rule="evenodd" stroke="#fff" stroke-width=".5"/><path clip-rule="evenodd" d="M1064.53 702.271l-16.98 10.217 6.39 6.057 21.45-7.336z" fill="#001d3d" fill-rule="evenodd" stroke="#fff" stroke-width=".5"/><path clip-rule="evenodd" d="M1382.17 682.644c2.2 5.459 2.89 11.314 1.07 17.352-3.84 12.714-14.12 12.041-14.12 12.041l-148.33-1.272-.02-.148c-.3-3.036-4.88-51.806 10.34-62.676 7.97-5.694 30.31-12.566 30.31-12.566l85.02 12.741s27.56 14.605 35.64 34.292z" fill="#fff" fill-rule="evenodd" stroke="#fff" stroke-width=".5"/><path clip-rule="evenodd" d="M1494.12 663.75c18.51-4.858 55.82-9.804 68.23-8.264 13.94 1.725 36.14 5.345 43.93 30.725 7.67 24.985-28.87 23.72-34.98 23.607-5.35-.103-78.89 5.274-92.54-17.066l25.76 1.904 3.49-23.755zM1201.8 316.967c7.37.051 14.15 1.934 14.97 2.168v.001l.09.07.98 27.456 1.59 42.505a43.306 43.306 0 0 1-4.34 4.007l-2.2 1.657a39.35 39.35 0 0 1-4.28 2.657l-.3.156a41.426 41.426 0 0 1-19.85 5.045c-8.31 0-16.08-2.443-22.71-6.717l-1.86-1.228-8.06-28.928s.6-.618 1.64-1.727l.57-.618.45-.491.91-.987c.22-.251.46-.513.7-.786.18-.193.35-.392.53-.596.33-.362.66-.741 1-1.133l.75-.852.55-.642 4.34-5.237c3.5-4.363 7.2-9.415 10.23-14.511 2.25-3.732 4.11-7.491 5.25-11.009.43-1.3.99-2.446 1.69-3.442 1.14-1.697 2.62-3.002 4.31-4.001a16.2 16.2 0 0 1 2.22-1.07c.78-.319 1.61-.585 2.45-.78 1.54-.413 3.16-.671 4.79-.834l2.87-.132c.12-.002.25-.002.37-.002z" fill="#001d3d" fill-rule="evenodd" stroke="#fff" stroke-width=".5"/><path clip-rule="evenodd" d="M1214.82 436.453c-10.05 5.289-21.46 7.791-33.02 8.284l-16.05-48.76c6.63 4.271 14.41 6.713 22.71 6.713 7.14 0 13.89-1.809 19.85-5.046l-6.2 8.152c-6.73 9.087-1.68 22.885 5.39 32.308.33.438.68.843 1.07 1.21 2.13-.84 4.22-1.791 6.25-2.861z" fill="#001d3d" fill-rule="evenodd" stroke="#fff" stroke-width=".5"/><path clip-rule="evenodd" d="M1219.43 389.174l1.45 37.941.22 5.548-.06.041-2.62 1.693-.79.479-2.2 1.244-.61.333a62.855 62.855 0 0 1-6.25 2.861 9.472 9.472 0 0 1-1.07-1.21c-7.07-9.423-12.12-23.221-5.39-32.308l6.2-8.152 1.89-1.05.27-.177c.83-.496 1.64-1.028 2.42-1.586z" fill="#fff" fill-rule="evenodd" stroke="#fff" stroke-width=".5"/><path clip-rule="evenodd" d="M1312.51 642.3l.04.142-.67.498-50.46-7.566s-22.34 6.873-30.31 12.567c-13.74 9.82-11.34 50.554-10.53 60.582l.21 2.242-6.06.673-42.01-145.626 3.53-1.531c17.77-8.277 36.57-25.263 36.57-25.263l-31.03-94.3c9.22-.388 18.36-2.054 26.78-5.404l.1-.041c4.37-1.727 8.54-3.916 12.43-6.61l.45 10.783.06 1.76c1.47 36.923 2.98 71.649 4 87.531 3.42-.61 17.92-8.267 32.37-21.285l8.14 40.175z" fill="#001d3d" fill-rule="evenodd" stroke="#fff" stroke-width=".5"/><path clip-rule="evenodd" d="M1257.64 511.754c-14.33 12.834-28.64 20.378-32.03 20.983-1.14-17.67-2.89-58.671-4.51-100.074l-.22-5.548-1.45-37.941c6.41-6.687 6.41-6.69 0-.007l-1.59-42.505-.98-27.456c3.99 3.556.98.84 0-.038v-.009l-.03-.004c-5.33-4.775-1.83-1.61-.06-.019v-.001c-.84-.242-8.05-2.24-15.69-2.167l-2.87.132c-1.63.138-3.25.393-4.79.834-.84.214-1.66.475-2.45.78-.77.306-1.51.661-2.22 1.07-1.69.989-3.18 2.294-4.31 4.001-.7.996-1.26 2.142-1.69 3.442-1.14 3.518-3.01 7.278-5.25 11.009-4.35 7.299-10.09 14.524-14.57 19.748-4.07 4.74-7.1 7.832-7.1 7.832l8.06 28.928 1.86 1.228 47.07 143.046s-18.8 16.986-36.57 25.263l-2.07.894.27-.122-1.73.759-.16.06c-6.39 2.539-13.79 2.606-22.12-1.726-32.76-17.051-11.66-51.601-8.97-79.87 1.7-17.886-7.37-18.348-21.76-29.925l-3.87-3.261c-.76-.71-1.53-1.422-2.3-2.133l-2.06-2.048-.27-.276c-5.6-5.753-11.71-13.465-18.1-24.316l-.31-.52-2.49-4.379c-29.62-53.846 29.62-64.615 29.62-64.615s52.5-71.345 80.33-71.345c22.45 0 19.47 24.553 17.48 34.029 1.33-1.479 4.34-2.564 11.01-1.273 13.91 2.693 9.42 23.782 10.33 37.243 38.47 16.378 12.11 48.91 12.11 48.91l1 .749.27.198c5.77 4.406 29.35 23.847 33.79 49.857l.41 2.898c1.29 10.99-1 23.055-9.44 35.591a92.377 92.377 0 0 1-4.15 5.682l1.04-1.348-3.42 4.305-.52.646-2.96 3.336-1.72 1.852-1.79 1.842-.47.476c-1.74 1.742-3.5 3.407-5.25 4.999zm4.43-4.139l1.63-1.639zm80.14 78.713c5.95.909 12.03 2.962 17.92 5.977 18.39 9.423 46.67 34.999 46.67 34.999l69.56 21.983-28.73 46.219-65.44-12.855-.02-.007c-7.95-19.808-35.73-34.528-35.73-34.528l-33.71-5.048-.18-.626-.03-.122 33.25-14.639c1.24-4.26-.39-20.266-3.56-41.353z" fill="#fff" fill-rule="evenodd" stroke="#fff" stroke-width=".5"/><path clip-rule="evenodd" d="M1312.52 642.321l-46.4-90.694-8.14-40.177c1.92-1.726 3.84-3.548 5.72-5.474l1.26-1.272.53-.573.89-.91.83-.94.58-.628-.58.628 2.96-3.336.52-.646-.1.138c.59-.722 1.19-1.452 1.78-2.193l.7-.902a92.377 92.377 0 0 0 4.15-5.682c8.44-12.536 10.73-24.601 9.44-35.591l-.41-2.898c-4.51-26.422-28.78-46.066-34.05-50.055 6.4-4.737 14.5-8.526 24.01-6.314 19.3 4.488 32.66 35.861 36.35 47.115 7.42 22.546 22.27 95.471 29.49 143.287l.16 1.124c3.17 21.087 4.8 37.093 3.57 41.353z" fill="#001d3d" fill-rule="evenodd" stroke="#fff" stroke-width=".5"/><path d="M1208.8 365.754c6.7 0 12.12-5.123 12.12-11.442s-5.42-11.442-12.12-11.442c-6.69 0-12.11 5.123-12.11 11.442s5.42 11.442 12.11 11.442zm-33.65 0c6.69 0 12.11-5.123 12.11-11.442s-5.42-11.442-12.11-11.442-12.12 5.123-12.12 11.442 5.43 11.442 12.12 11.442z" fill="#001d3d" stroke="#fff" stroke-width=".5"/><path clip-rule="evenodd" d="M1338.02 631.101l24.93 11.172 2.68 19.203-19.19-13.36-33.92-5.795z" fill="#001d3d" fill-rule="evenodd" stroke="#fff" stroke-width=".5"/><path clip-rule="evenodd" d="M1060.28 672.212l37.11 31.445 18.39-8.454-51.86-47.282zm235.97-61.674l43.22-41.582 2.58 16.248-38.53 39.523zm207.2 57.904s53.48-7.996 65.6-.592 22.21 19.519 18.85 29.952c-3.37 10.432-89.87-1.198-89.71-4.396l6.32.532 3.37-23.221z" fill="#fff" fill-rule="evenodd" stroke="#fff" stroke-width=".5"/><path clip-rule="evenodd" d="M1525.56 676.189l-2.96-5.425-4.37 1.347 4.56 8.635-4.19 6.892 3.36 3.11 3.31-5.297 2.38 4.496 5.05-.673-4.57-8.373 4.54-7.242-3.11-4.032zm17.17 1.346l-2.96-5.424-4.38 1.346 4.57 8.635-4.2 6.892 3.36 3.11 3.32-5.297 2.38 4.496 5.04-.673-4.57-8.373 4.54-7.242-3.11-4.032z" fill="#001d3d" fill-rule="evenodd"/><path clip-rule="evenodd" d="M1451.39 689.469l22.5-36.211 33.99 17.459s4.79 5.674 3.38 12.97c-1.56 8.07-6.75 10.251-6.75 10.251z" fill="#001d3d" fill-rule="evenodd" stroke="#fff" stroke-width=".5"/><path clip-rule="evenodd" d="M1284.71 587.957l-102.16-27.238-8.97 4.487 3.14 11.215zm4.02 7.855l-104.38 6.192 2.24 8.077zm3.05 5.983l-95.99 43.729 4.49 13.913z" fill="#fff" fill-rule="evenodd"/><path clip-rule="evenodd" d="M812.087 707.101c3.74 3.332 6.06 7.983 6.06 13.125 0 10.156-9.049 18.401-20.194 18.401-11.146 0-20.195-8.245-20.195-18.401 0-5.142 2.32-9.793 6.061-13.125z" fill="#001d3d" fill-rule="evenodd"/><g mask="url(#c)"><path d="M801.991 729.649c5.713 0 10.344-4.219 10.344-9.423s-4.631-9.422-10.344-9.422c-5.712 0-10.343 4.218-10.343 9.422s4.631 9.423 10.343 9.423z" fill="#001d3d" stroke="#fff" stroke-width=".5"/></g><path clip-rule="evenodd" d="M812.087 707.101c3.74 3.332 6.06 7.983 6.06 13.125 0 10.156-9.049 18.401-20.194 18.401-11.146 0-20.195-8.245-20.195-18.401 0-5.142 2.32-9.793 6.061-13.125z" stroke="#fff" stroke-width=".5"/><path d="M851.804 738.623c11.153 0 20.194-8.237 20.194-18.397 0-10.161-9.041-18.397-20.194-18.397s-20.194 8.236-20.194 18.397c0 10.16 9.041 18.397 20.194 18.397z" fill="#001d3d"/><g mask="url(#d)"><path d="M855.842 729.649c5.713 0 10.344-4.219 10.344-9.423s-4.631-9.423-10.344-9.423c-5.712 0-10.343 4.219-10.343 9.423s4.631 9.423 10.343 9.423z" fill="#001d3d" stroke="#fff" stroke-width=".5"/></g><g stroke="#fff" stroke-width=".5"><path d="M851.804 738.623c11.153 0 20.194-8.237 20.194-18.397 0-10.161-9.041-18.397-20.194-18.397s-20.194 8.236-20.194 18.397c0 10.16 9.041 18.397 20.194 18.397z"/><path clip-rule="evenodd" d="M750.382 703.65c-8.65-6.34-23.874-19.552-6.224-23.019 4.785-.942 11.865-.565 20.187.68l.357.047c15.117 2.255 34.257 7.269 51.238 12.284h214.08v13.461H812.087c-.171-.155-56.711 0-56.711 0s-2.038-1.285-4.791-3.305zm303.058-229.997c5.81 5.871 10.49 15.591 12.98 30.827 11.45 69.995 10.77 75.38 10.77 75.38l-10.28 9.335s-16.69-6.602-31.82 10.581c-8.32 10.278-9.12 26.552-9.12 26.552l-16.24 14.734-.04-.027c-15.555-20.522-39.718-52.169-46.257-59.6-3.917-4.449-7.268-8.016-11.79-10.641l-.217-.121 42.971-84.042s46.443-6.157 51.383-7.952c2.14-.778 5.29-1.977 7.66-5.026z" fill="#001d3d" fill-rule="evenodd"/><path clip-rule="evenodd" d="M1025.98 626.281c.05-.962 1.04-16.544 9.11-26.505 15.13-17.183 31.82-10.581 31.82-10.581l13.12 71.002c-14.43-19.283-36.72-7.646-45.79 3.547l-8.27-37.416z" fill="#001d3d" fill-rule="evenodd"/><path clip-rule="evenodd" d="M920.894 346.169c-1.981 2.456-3.004 4.021-3.004 4.021l-.038-1.446c-.102-6.479.2-32.835 11.587-39.902 13.014-8.077 45.931-14.947 63.354 7.333.575.736 1.11 1.469 1.606 2.205-21.758-5.642-39.599.504-52.559 8.863l-17.953 15.429-.742.81-2.156 2.569z"/><path clip-rule="evenodd" d="M924.896 341.565c3.54-3.833 8.381-8.42 14.413-12.628 13.123-9.179 31.879-16.576 55.09-10.557l2.917.782c13.354 4.038 28.304 13.013 19.924 20.641-3.96 3.609-24.447 19.294-24.447 19.294l-1.543-.183-.161-.556c-.031-.107-.064-.214-.097-.323-.228-.747.258.879.258.879s-10.203-13.951-28.715-17.653c-18.487-3.697-38.934 3.503-41.529 4.786a84.675 84.675 0 0 1 3.89-4.482z" fill="#fff" fill-rule="evenodd"/><path clip-rule="evenodd" d="M1034.74 663.165l-.39.445-.11.134c-4.76 5.863-7.52 24.231-9.05 40.371l-14.19-5.122s26.93-13.462 12.34-39.933z"/><path clip-rule="evenodd" d="M1068.17 713.8l-44.09 4.005c.27-4.079.63-8.784 1.11-13.69l.06-.761c1.55-15.952 4.31-33.835 8.99-39.61l.11-.135.39-.444.11-.128c9.41-10.964 31.05-21.713 45.18-2.84l.28.364c2.33 3.136 4.62 6.434 6.8 9.806-.46.269-.46.269 0 0 8.75 13.286 16.25 27.562 20.75 36.662-8.39-7.747-19.06-16.207-25.5-16.322-11.9-.215-14.19 23.093-14.19 23.093z" fill="#fff" fill-rule="evenodd"/><path clip-rule="evenodd" d="M1112.2 727.759c-.33 1.252-.68 1.973-.68 1.973l-88.18 1.797s.18-5.647.74-13.724l44.09-4.005.01-.061c.14-1.366 2.65-23.24 14.18-23.032l1.25.115c1.22.195 2.55.632 3.96 1.265 1.28.565 2.63 1.285 4.02 2.14 5.3 3.184 11.2 8.124 16.27 12.802l3.22 6.549c2.75 5.815 1.96 11.213 1.16 14.054z" fill="#001d3d" fill-rule="evenodd"/><path clip-rule="evenodd" d="M978.571 400.365a39.061 39.061 0 0 1-15.033 7.947l-.078.022c-3.395.985-6.983 1.49-10.688 1.49-7.377 0-14.29-2.001-20.208-5.525l-.069-.041c-11.821-6.927-19.743-19.771-19.743-34.45 0-7.13 1.869-13.825 5.166-19.615l.176-.29c.392-.574 1.371-1.961 2.912-3.856 2.595-1.283 23.042-8.483 41.53-4.786 18.511 3.702 28.714 17.653 28.714 17.653l.047.162.217.866 1.569.75z"/><path clip-rule="evenodd" d="M993.951 358.319c9.199-4.683 16.879-7.846 20.299-8.708a9.06 9.06 0 0 1 2.18-.288h.15c5.41.078 7.6 5.673 7.6 5.673s24.23 70.448 30.51 94.229c3.53 13.372 1.82 20.502-1.25 24.497l-.07.093c-2.37 3.048-5.52 4.247-7.65 5.025-4.94 1.795-51.39 7.952-51.39 7.952l-.01-.053c-.196-1.08-3.301-18.555-1.594-28.988 1.761-10.769 17.534-13.013 17.534-13.013l-10.16-58.781-17.214 18.482-4.383-3.888zm-13.466 40.947z" fill="#001d3d" fill-rule="evenodd"/><path clip-rule="evenodd" d="M1102.52 662.028c-20.07 18.375 15.32 34.494 15.32 34.494l-5.77 17.944-.49-1.225s-15.21-29.924-23.97-43.21c4.59-2.747 9.72-5.708 14.91-8.003z" fill="#fff" fill-rule="evenodd"/><path clip-rule="evenodd" d="M1102.52 662.028c10.5-4.685 21.18-6.67 27.77 1.238 13.46 16.154 7.63 55.636-5.84 62.818-2.47 1.319-6.62 1.669-11.74 1.339.75-2.605 1.55-7.532-.64-12.956l5.77-17.944s-35.39-16.12-15.32-34.495zm-18.86 3.204l-27.25-3.426 1.01 7.74 29.69.821zm-23.21 14.915l31.74-1.75 4.11 6.212-32.65 2.437z" fill="#001d3d" fill-rule="evenodd"/><path d="M1039.64 710.881c6.44 0 11.67-7.232 11.67-16.153 0-8.922-5.23-16.154-11.67-16.154-6.45 0-11.67 7.232-11.67 16.154 0 8.921 5.22 16.153 11.67 16.153z" fill="#001d3d"/><path clip-rule="evenodd" d="M848.046 701.005c-6.372-2.692-15.94-8.568-18.568-19.956-1.282-5.553 4.014-19.176 12.813-35.202l.446-.807 3.518-6.166 2.096-3.493 1.966-3.244 2.251-3.554 2.096-3.278 2.384-3.567 2.205-3.278 2.494-3.533 2.291-3.231 2.582-3.466 2.356-3.15 2.648-3.359 2.399-3.022 2.693-3.204 2.417-2.867 2.72-3.009 2.41-2.658 2.729-2.78 2.375-2.403 2.724-2.51 2.347-2.154 1.269-1.064 1.175-.982 1.291-1.01 1.152-.895 1.279-.922 1.126-.808 1.266-.828 1.093-.707 1.254-.726 1.054-.606 1.246-.619 1.006-.502 1.247-.513.944-.386 1.268-.4.855-.268 1.362-.283.689-.142 1.972-.173 6.392-.046 5.658.162 4.993.37c7.807.787 13.129 2.43 17.397 4.906l.217.122c4.522 2.625 7.873 6.192 11.79 10.641 6.539 7.43 30.702 39.078 46.257 59.6l2.87 3.776 10.78 14.249 1.25 2.443c11.68 24.863-13.59 37.49-13.59 37.49l-157.065 4.038s-2.416-.525-5.739-1.965z" fill="#001d3d" fill-rule="evenodd"/><path clip-rule="evenodd" d="M999.621 425.855a109.786 109.786 0 0 1 8.649 6.816l2.06 11.906s-15.776 2.243-17.537 13.012c-1.706 10.433 1.399 27.908 1.594 28.989l.01.053-42.971 84.041c-4.268-2.476-9.59-4.119-17.397-4.906l-4.993-.37-5.658-.162-6.392.046c-.644.014-1.302.073-1.972.173l-.008.001-.681.141-1.345.278-.032.009-.84.264-1.241.389-.052.018-.919.379-1.21.496-.07.031-.972.488-1.201.592-.089.047-1.011.586-1.198.693-.11.067-1.039.673-1.199.781-.131.087-1.062.768-1.2.855-.153.114-1.078.848-1.202.936-.174.141-1.09.915-1.202 1.003-.196.168-2.218 2.047-2.6 2.382-.124.128-.114.101-2.261 2.302-2.584 2.618-.145.162-.136.141-2.274 2.517-2.554 2.814-.166.195-.156.175-2.261 2.692-2.509 2.968-.184.236-.174.202-2.225 2.82-2.448 3.089-.2.27-.192.242-2.164 2.908-2.368 3.163-.214.303-.206.276-2.085 2.955-2.272 3.203-.222.33-.22.31-1.985 2.968-2.156 3.211-.228.356-.228.337-1.867 2.941-2.024 3.17-.228.384-.234.363-1.732 2.881-1.872 3.096-.224.397-.235.391-1.58 2.786-1.703 2.989-.446.807c-8.799 16.026-14.095 29.649-12.813 35.202 2.649 11.475 12.348 17.358 18.718 20.017l.003.033-34.203-10.627 4.038-96.922 19.522-21.538-26.926-74.039s29.095-41.07 51.577-68.007c-8.852 30.692 9.679 56.665 9.679 56.665l40.866 51.726 5.088-57.628s8.695-3.618 12.06-8.113c3.835.666 7.974 1.014 12.441 1.014 2.609 0 5.088-.133 7.438-.42l8.887 26.895s27.407-36.596 37.863-64.615a105.591 105.591 0 0 0 3.092-9.635z" fill="#001d3d" fill-rule="evenodd"/><path clip-rule="evenodd" d="M930.997 404.364l1.567-.065c5.917 3.525 12.831 5.525 20.208 5.525 3.705 0 7.293-.505 10.688-1.49l1.505.457c-1.944.841-3.179 1.033-3.179 1.033l-21.801 33.743 9.794 29.643c-2.35.287-4.829.421-7.438.421-4.467 0-8.606-.349-12.441-1.015l.07-.095c.723-.98 1.183-2.005 1.238-3.041.495-9.27-10.4-44.374-10.4-44.374l.05-20.012.573-.055z"/><path clip-rule="evenodd" d="M929.9 472.616c-3.365 4.495-12.06 8.113-12.06 8.113l-5.088 57.628-40.866-51.726s-18.531-25.973-9.679-56.665c.478-.578.955-1.15 1.428-1.713l-.203.233-1.225 1.48c3.693-12.999 12.318-26.834 29.312-39.907.667-3.485-3.478-15.93 4.263-27.884 7.741-11.955 25.224-16.128 25.224-16.128l2.796-2.995c2.789-5.163 5.9-6.32 5.9-6.32l-5.9 6.32c-2.566 4.75-4.861 12.893-4.21 26.647.686 14.467 12.903 34.559 12.903 34.559l-1.498.106-4.491.186-5.074.489-.574.04-.05 20.027s10.895 35.104 10.4 44.374c-.055 1.036-.515 2.061-1.238 3.041zm10.085-29.049l21.801-33.743s1.235-.192 3.18-1.033l.151-.066c3.205-1.407 8.234-4.538 12.875-11.313l.578 2.977 4.384 3.889 17.216-18.483 2.93 16.957c-.19 7.049-1.21 14.793-3.479 23.103l-1.067-.779c-1.186-.795-2.168-2.131-3.48-2.588l-.584-.138a102.19 102.19 0 0 1 5.131 3.505 105.398 105.398 0 0 1-3.092 9.636c-10.456 28.018-37.863 64.614-37.863 64.614zm51.607-22.517a135.56 135.56 0 0 0-.667-.642l-.673-.642c.451.428.898.855 1.34 1.284zm-2.147-1.622l.348.199zm-2.585-1.431l.249.135zm-106.062-.783l-.215.1.556-.257zm.565-.261l-.211.098.544-.249zm.565-.256l-.208.094.535-.242zm.561-.253l-.203.091.529-.236zm.562-.251l-.202.09.527-.233zm.561-.248l-.204.09.53-.232zm.558-.244l-.205.09.536-.232zm35.815-10.5a120.22 120.22 0 0 0-12.358 2.215 132.339 132.339 0 0 0-12.972 3.743c8.849-3.041 17.302-4.954 25.33-5.958z" fill="#fff" fill-rule="evenodd"/><path clip-rule="evenodd" d="M750.585 703.798l-8.728 14.269-76.065.674 70.68-34.327 79.176-172.642 21.908 60.24-19.522 21.538-53.689 87.761c-8.322-1.245-15.402-1.622-20.187-.679-17.788 3.493-2.185 16.887 6.427 23.166z" fill="#001d3d" fill-rule="evenodd"/><path clip-rule="evenodd" d="M899.968 701.853s27.187-1.703 44.729-51.968c4.752-.12-16.216 51.235-16.216 51.235zM1028.3 613.5s-26.17-24.675-29.313-42.175c-3.141-17.499-2.244 23.336 5.833 34.549 8.08 11.22 21.15 20.454 21.15 20.454z" fill="#fff" fill-rule="evenodd"/><path clip-rule="evenodd" d="M581.535 643.371l-2.409 39.953v-12.115l-31.412-1.683 3.524-33.371zm85.409-3.783l4.683 36.857 20.194 1.346 2.309-26.472z" fill="#001d3d" fill-rule="evenodd"/><path clip-rule="evenodd" d="M661.388 720.396l10.239-43.951 20.194 1.346s29.559 17.466 50.225 30.241c-11.84-4.88-20.944 12.162-20.944 12.162z" fill="#fff" fill-rule="evenodd"/><path clip-rule="evenodd" d="M661.388 720.396l59.714-.202s9.104-17.042 20.944-12.162c8.607 5.27 15.669 9.753 18.435 11.826 9.424 7.067 4.039 16.826 4.039 16.826l-106.02-3.89z" fill="#001d3d" fill-rule="evenodd"/><path clip-rule="evenodd" d="M547.714 669.526l31.412 1.683v12.115s-.559 8.413 4.49 16.826c3.786 6.314 6.072 21.141 6.979 28.161l.451 3.81s-10.796-30.174-35.69-25.462c-9.957 1.885-14.485 13.461-14.485 13.461l-17.285 3.837-3.919 8.837z" fill="#fff" fill-rule="evenodd"/><path clip-rule="evenodd" d="M519.667 732.794l3.919-8.837 17.285-3.837s4.528-11.577 14.485-13.461c21.782-4.126 32.77 18.462 35.177 24.176l.513 1.286zm132.16-99.721l45.773 19.741 8.726-242.143-61.791-20.828zm-76.668-199.598l-8.459-4.911.618 32.387 3.543 4.133z" fill="#001d3d" fill-rule="evenodd"/><path clip-rule="evenodd" d="M583.872 369.395l60.663 20.448-40.052 246.312-13.437 9.477-43.332-10.318z" fill="#001d3d" fill-rule="evenodd"/><path clip-rule="evenodd" d="M665.899 179.106c31.27 7.305 47.831 25.607 47.831 25.607l-7.404 205.958-124.671-41.276 10.013-93.561-16.329-84.277c31.046-14.409 57.261-17.176 78.233-14.643l.038 1.09-.038.286.072.709.004.033c.338 2.825 2.754 5.008 5.675 5.008 2.972 0 5.42-2.26 5.69-5.155l.702.178z" fill="#001d3d" fill-rule="evenodd"/><path clip-rule="evenodd" d="M657.94 394.362l7.35 44.483 41.991-15.663-.955-12.511zm-13.405-4.519l-2.805 66.098-62.604-61.579 2.529-24.967z" fill="#001d3d" fill-rule="evenodd"/><path clip-rule="evenodd" d="M575.339 191.888l15.707 84.787-15.865 156.64-10.5-6.097.673-225.253s.836-11.351 9.985-10.077z" fill="#001d3d" fill-rule="evenodd"/><path clip-rule="evenodd" d="M751.199 343.493l14.43 117.787-61.555 18.879 4.507-132.215zm-56.782-153.278l15.299 126.154 4.014-111.656s-14.023-11.973-19.313-14.498z" fill="#fff" fill-rule="evenodd"/><path clip-rule="evenodd" d="M740.891 428.3l10.308 22.436-41.328-2.693-1.29-21.09z" fill="#001d3d" fill-rule="evenodd"/><path clip-rule="evenodd" d="M735.977 449.743v26.378l-7.215 4.038-1.139-30.959z" fill="#001d3d" fill-rule="evenodd"/><path clip-rule="evenodd" d="M718.857 448.628l1.201 29.815h8.641l-1.076-29.243zm-8.986-.585l-1.29 19.867 10.876-4.374-.577-14.336zm34.272 2.233l-4.968 21.672h-3.198v-22.204zM713.73 204.713s5.621-1.217 7.64 1.475c2.02 2.692 32.648 108.027 29.618 129.902-3.029 21.874-10.097 92.21-10.097 92.21l-32.31-1.346-2.255-16.283zm-75.156-24.326l13.687-11.891 4.039 33.429-11.765 5.161zm36.799-11.891l2.916 23.292-10.994 12.65-2.564-25.642z" fill="#001d3d" fill-rule="evenodd"/><path clip-rule="evenodd" d="M653.572 176.914v-.006c.863-3.297 4.948-14.274 7.223-20.273a44.29 44.29 0 0 0 14.759 4.697l.66.433-10.496 17.287-.003.011-.702-.178c-.27 2.895-2.718 5.155-5.69 5.155-2.933 0-5.356-2.2-5.679-5.041l-.034-.995.141-1.071z"/><path clip-rule="evenodd" d="M729.224 191.942l-47.401-23.446-1.905-6.776 1.905.045c23.871 0 43.25-18.095 43.25-40.384zM710.599 69.585c-2.926 7.48-19.071 26.669-19.071 26.669s-63.557-5.323-44.091 41.73c7.188 17.374 13.8 23.781 13.8 23.781l-8.468 10.933-20.029-4.202s-1.121-40.608-1.57-49.358 5.385-5.609 7.404-15.256c2.02-9.647 11.219-44.198 29.842-45.544 18.624-1.346 37.023 7.07 41.96 8.358l.061-.01c1.245-.225 21.269-3.658 25.182 6.123 4.039 10.096 4.039 30.961 2.356 33.653s-24.245 3.702-24.245 3.702zm14.696 52.185a34.712 34.712 0 0 0-.184.125l.099-.067.085-.058zm.036-.02l-.121.076.209-.128z" fill="#fff" fill-rule="evenodd"/><path clip-rule="evenodd" d="M675.43 161.315c-5.249-.725-10.192-2.333-14.635-4.681l-.077-.04c-13.218-6.89-22.144-20.086-22.144-35.213 0-22.288 32.842-55.46 56.712-55.46 23.123 0 28.569 32.057 29.73 53.384l.056 2.076-.056 2.077c-1.161 21.327-20.07 38.307-43.193 38.307l-1.905-.045-.27-.011-4.094-.377z"/></g></g></g></svg>