<svg width="800" height="465" fill="none" xmlns="http://www.w3.org/2000/svg"><g clip-path="url(#clip0_628_1204)"><path fill="#001D3D" d="M0 0H800V465H0z"/><path fill-rule="evenodd" clip-rule="evenodd" d="M174.371 225.878c-7.969-5.894-17.685-16.299-16.923-31.552.557-11.117 10.157-23.564 20.827-34.079 3.917 6.679 7.719 12.121 11.348 16.624 1.779-5.031 3.136-8.64 3.136-8.64l20.481 18.746s-.992 4.468-2.752 9.084c9.735 6.736 15.399 9.468 14.062 23.508-2.56 26.84-22.619 59.645 8.532 75.834 7.917 4.113 14.951 4.05 21.031 1.639l.147-.057 39.945 138.267H182.416l.218-7.388.352-.14 2.771-1.144 2.688-1.106.141-.064.179-.077 2.861-1.303 2.682-1.214.115-.064.154-.071 2.841-1.457 2.567-1.31.134-.076.077-.045 1.293-.729 1.197-.683.083-.052.096-.057 1.248-.767 1.14-.703.07-.045.083-.051 1.184-.805 1.069-.722.058-.045.064-.045 1.113-.843.98-.735.044-.038.052-.039 1.024-.882.877-.747.032-.032.038-.032.922-.92.755-.755.025-.032.026-.025.807-.971.62-.748.013-.019.019-.019.672-1.042.461-.716.007-.013.012-.019.538-1.182.282-.614v-.006a9.608 9.608 0 0 0 .467-1.834l1.114-1.125c8.493-8.557 12.135-16.085 13.101-22.769 1.415-9.663-2.752-17.581-5.952-24.342-1.082-2.275-2.055-4.422-2.669-6.467l-1.338-9.586-.166-1.118-.071-.492-.704-4.576-1.453-9.573-.396-2.486-.308-2.019-.019-.064c-5.728-36.825-15.13-94.581-18.094-112.708l-.921-5.637s-2.369 1.131-5.671 3.217l-.109.07-.301.201-2.054 1.349-.378.276-.32.214 2.471-2.67c-.007-.002-2.477 2.693-2.477 2.693-2.535 1.771-5.287 3.968-7.828 6.523l-.186.185c-3.872 3.887-7.207 8.608-8.467 13.956z" fill="#001D3D" stroke="#fff" stroke-width=".5"/><path fill-rule="evenodd" clip-rule="evenodd" d="M200.612 205.501c2.964 18.127 12.366 75.883 18.094 112.708l.723 4.569 2.394 15.759 1.338 9.586.057.192c.615 1.981 1.562 4.07 2.612 6.275.352.735.71 1.489 1.075 2.256.346.722.685 1.451 1.031 2.198.243.544.486 1.093.729 1.649.787 1.834 1.523 3.751 2.106 5.752l.051.179.211.773c.301 1.131.544 2.288.724 3.47l.032.262c.198 1.419.3 2.882.275 4.39a33.072 33.072 0 0 1-.077 1.572 22.953 22.953 0 0 1-.173 1.611l-.032.23c-.96 6.691-4.602 14.219-13.101 22.769l-1.114 1.125-.467 1.834-.282.62-.55 1.201-.468.729-.691 1.061-.634.767-.832.997-.78.786-.961.952-.908.779-1.076.921-1.024.773-1.177.888-1.127.767-1.267.856-1.21.748-1.344.824-1.28.735-1.37.774-2.701 1.386-2.995 1.528-2.797 1.278-3.04 1.38-2.829 1.17-3.124 1.284c-11.277 4.454-20.916 7.17-20.916 7.17s-19.957-15.414-17.492-16.187c9.351-62.129 26.452-177.231 30.139-192.948l.064-.271c1.306-5.245 4.602-9.88 8.41-13.706l.186-.185c2.541-2.555 5.293-4.752 7.828-6.523l.326-.237 2.432-1.625.41-.271.493-.309c3.046-1.889 5.178-2.908 5.178-2.908l.921 5.637z" fill="#001D3D" stroke="#fff" stroke-width=".5"/><path fill-rule="evenodd" clip-rule="evenodd" d="M147.399 423.135s-23.675 3.208-28.475 3.208c-4.801 0-10.241-1.598-13.761 4.793-3.52 6.391 51.178-.364 51.178-.364l-8.942-7.637z" fill="#001D3D" stroke="#fff" stroke-width=".5"/><path fill-rule="evenodd" clip-rule="evenodd" d="M151.393 426.548l-16.148 9.7 6.08 5.752 20.392-6.966-10.324-8.486z" fill="#001D3D" stroke="#fff" stroke-width=".5"/><path fill-rule="evenodd" clip-rule="evenodd" d="M453.416 407.913c2.092 5.183 2.745 10.742 1.011 16.475-3.648 12.071-13.422 11.432-13.422 11.432l-141.039-1.208-.013-.14c-.288-2.882-4.64-49.188 9.825-59.509 7.584-5.406 28.821-11.931 28.821-11.931l80.843 12.097s26.203 13.868 33.884 32.56l.09.224z" fill="#fff" stroke="#fff" stroke-width=".5"/><path fill-rule="evenodd" clip-rule="evenodd" d="M560.516 390.192c17.58-4.96 52.908-10.247 64.603-8.91 13.134 1.498 34.043 4.732 40.931 29.304 6.783 24.19-27.715 23.43-33.486 23.399-5.046-.031-74.613 6.141-87.093-15.401l24.296 1.52 3.742-23.138-12.993-6.774zM281.91 60.714c7.015.05 13.46 1.837 14.235 2.059h.006l.077.067.941 26.069 1.51 40.357a41.526 41.526 0 0 1-4.128 3.805l-2.093 1.573a37.112 37.112 0 0 1-4.07 2.523l-.282.148a39.472 39.472 0 0 1-18.881 4.79c-7.898 0-15.284-2.32-21.589-6.378l-1.766-1.166-7.668-27.466s.576-.587 1.562-1.64l.544-.587.428-.466.858-.937c.211-.238.442-.487.672-.746.167-.183.333-.373.506-.566.307-.344.621-.703.947-1.076l.711-.809.524-.61 4.129-4.971c3.321-4.143 6.848-8.94 9.722-13.778 2.138-3.543 3.91-7.113 4.999-10.453.403-1.234.94-2.322 1.6-3.269 1.088-1.61 2.496-2.85 4.102-3.798.672-.39 1.376-.73 2.106-1.016.749-.302 1.53-.555 2.336-.74 1.466-.393 3.002-.638 4.551-.793l2.733-.125c.115-.002.23-.002.345-.002l.333.002z" fill="#001D3D" stroke="#fff" stroke-width=".5"/><path fill-rule="evenodd" clip-rule="evenodd" d="M294.295 174.162c-9.556 5.022-20.411 7.398-31.4 7.866l-15.259-46.296c6.304 4.055 13.697 6.373 21.589 6.373 6.79 0 13.21-1.717 18.881-4.79l-5.895 7.74c-6.4 8.627-1.6 21.728 5.12 30.675.314.416.647.8 1.018 1.149a59.628 59.628 0 0 0 5.946-2.717z" fill="#001D3D" stroke="#fff" stroke-width=".5"/><path fill-rule="evenodd" clip-rule="evenodd" d="M298.679 129.272l1.376 36.024.212 5.268-.064.039-2.484 1.607-.755.455-2.086 1.181-.583.316a59.628 59.628 0 0 1-5.946 2.717 9.035 9.035 0 0 1-1.018-1.149c-6.72-8.947-11.52-22.048-5.12-30.675l5.895-7.74 1.798-.997.256-.169a33.75 33.75 0 0 0 2.298-1.505l6.221-5.372z" fill="#fff" stroke="#fff" stroke-width=".5"/><path fill-rule="evenodd" clip-rule="evenodd" d="M387.178 369.608l.038.134-.633.473-47.984-7.183s-21.237 6.525-28.821 11.931c-13.064 9.324-10.779 48-10.004 57.521l.192 2.129-5.761.639-39.945-138.267 3.361-1.454c16.89-7.859 34.773-23.986 34.773-23.986l-29.506-89.535c8.769-.368 17.454-1.95 25.461-5.131l.096-.039c4.154-1.64 8.122-3.718 11.822-6.276l.422 10.238.064 1.671c1.389 35.057 2.829 68.029 3.802 83.108 3.245-.579 17.038-7.849 30.773-20.21l7.738 38.145 44.112 86.092z" fill="#001D3D" stroke="#fff" stroke-width=".5"/><path fill-rule="evenodd" clip-rule="evenodd" d="M335.008 245.659c-13.626 12.185-27.234 19.348-30.453 19.922-1.088-16.777-2.746-55.706-4.288-95.017l-.212-5.268-1.376-36.024c6.094-6.349 6.094-6.351 0-.006l-1.51-40.357-.941-26.069c3.802 3.376.934.798 0-.036v-.008l-.019-.004c-5.076-4.533-1.748-1.53-.058-.018l-.006-.001c-.8-.23-7.649-2.127-14.913-2.058l-2.733.125c-1.549.132-3.092.374-4.551.792-.8.204-1.581.452-2.336.74-.73.292-1.434.63-2.106 1.017-1.613.94-3.021 2.179-4.102 3.799-.66.946-1.197 2.034-1.601 3.268-1.088 3.34-2.86 6.91-4.998 10.453-4.135 6.93-9.594 13.79-13.851 18.75-3.872 4.5-6.752 7.436-6.752 7.436l7.668 27.466 1.766 1.166 44.758 135.818s-17.883 16.127-34.773 23.986l-1.965.849.249-.116-1.645.721-.147.057c-6.08 2.411-13.114 2.474-21.031-1.639-31.151-16.189-11.092-48.994-8.532-75.834 1.619-16.982-7.009-17.421-20.686-28.413l-3.681-3.096-2.189-2.025-1.958-1.945-.256-.262c-5.325-5.462-11.137-12.785-17.217-23.087l-.288-.494-2.368-4.158c-28.162-51.124 28.161-61.35 28.161-61.35S253.992 27 280.445 27c21.351 0 18.516 23.312 16.628 32.31 1.261-1.405 4.122-2.435 10.465-1.21 13.229 2.557 8.96 22.58 9.818 35.362 36.584 15.55 11.52 46.438 11.52 46.438l.954.711.25.189c5.485 4.182 27.912 22.641 32.13 47.337l.39 2.752c1.223 10.434-.947 21.889-8.98 33.792a83.727 83.727 0 0 1-3.942 5.395l.985-1.28-3.245 4.088-.492.613-2.817 3.167-1.638 1.758-1.703 1.749-.448.452a134.736 134.736 0 0 1-4.992 4.747l-.32.289zm4.212-3.93l1.548-1.557-1.548 1.557zm76.203 74.735c5.658.863 11.431 2.812 17.031 5.675 17.493 8.947 44.374 33.231 44.374 33.231l66.142 20.871-27.31 43.884-62.232-12.206-.012-.006c-7.559-18.808-33.974-32.784-33.974-32.784l-32.053-4.793-.173-.594-.032-.115 31.625-13.899c1.177-4.046-.372-19.242-3.386-39.264z" fill="#fff" stroke="#fff" stroke-width=".5"/><path fill-rule="evenodd" clip-rule="evenodd" d="M387.184 369.627l-44.118-86.111-7.738-38.146a111.11 111.11 0 0 0 5.44-5.198l1.197-1.207.506-.544.845-.865.793-.892.551-.596-.551.596 2.817-3.167.492-.613-.102.13c.57-.685 1.139-1.379 1.696-2.081l.666-.857a83.727 83.727 0 0 0 3.942-5.395c8.033-11.903 10.203-23.358 8.98-33.792l-.39-2.752c-4.289-25.087-27.362-43.738-32.38-47.526 6.093-4.497 13.793-8.095 22.837-5.994 18.35 4.26 31.048 34.049 34.562 44.734 7.053 21.406 21.173 90.646 28.034 136.046l.16 1.067c3.014 20.022 4.563 35.218 3.386 39.264l-31.625 13.899z" fill="#001D3D" stroke="#fff" stroke-width=".5"/><path d="M288.573 107.036c6.363 0 11.521-4.864 11.521-10.864 0-6-5.158-10.864-11.521-10.864s-11.521 4.864-11.521 10.864c0 6 5.158 10.864 11.521 10.864zm-32.002 0c6.363 0 11.521-4.864 11.521-10.864 0-6-5.158-10.864-11.521-10.864s-11.521 4.864-11.521 10.864c0 6 5.158 10.864 11.521 10.864z" fill="#001D3D" stroke="#fff" stroke-width=".5"/><path fill-rule="evenodd" clip-rule="evenodd" d="M411.435 358.974l23.707 10.608 2.548 18.233-18.248-12.686-32.258-5.502 24.251-10.653z" fill="#001D3D" stroke="#fff" stroke-width=".5"/><path fill-rule="evenodd" clip-rule="evenodd" d="M147.354 398.008l35.279 29.856 17.486-8.026-49.302-44.894-3.463 23.064zm224.367-58.557l41.09-39.481 2.452 15.427-36.636 37.525-6.906-13.471zm197.011 54.978s50.851-7.592 62.372-.563c11.521 7.03 21.121 18.533 17.921 28.438-3.2 9.906-85.452-1.137-85.292-4.173l6.01.505 3.2-22.047-4.211-2.16z" fill="#fff" stroke="#fff" stroke-width=".5"/><path fill-rule="evenodd" clip-rule="evenodd" d="M589.757 401.784l-2.816-5.151-4.16 1.279 4.339 8.199-3.987 6.544 3.194 2.952 3.155-5.029 2.259 4.269 4.801-.64-4.346-7.949 4.314-6.877-2.957-3.828-3.796 6.231zm16.321 1.278l-2.816-5.15-4.16 1.278 4.339 8.199-3.987 6.544 3.194 2.952 3.155-5.029 2.259 4.269 4.801-.639-4.346-7.95 4.314-6.877-2.957-3.827-3.796 6.23z" fill="#001D3D"/><path fill-rule="evenodd" clip-rule="evenodd" d="M519.231 414.393l21.39-34.381 32.322 16.577s4.557 5.387 3.213 12.314c-1.478 7.663-6.413 9.733-6.413 9.733l-50.512-4.243z" fill="#001D3D" stroke="#fff" stroke-width=".5"/><path fill-rule="evenodd" clip-rule="evenodd" d="M360.744 318.011l-97.133-25.862-8.531 4.26 2.989 10.648 102.675 10.954zm3.821 7.458l-99.245 5.879 2.132 7.668 97.113-13.547zm2.906 5.681l-91.27 41.519 4.269 13.209 87.001-54.728z" fill="#fff"/></g><defs><clipPath id="clip0_628_1204"><path fill="#fff" d="M0 0H800V465H0z"/></clipPath></defs></svg>