<svg fill="none" height="465" width="800" xmlns="http://www.w3.org/2000/svg"><clipPath id="a"><path d="M0 0h800v465H0z"/></clipPath><mask id="b" height="29" maskUnits="userSpaceOnUse" width="38" x="244" y="414"><path d="M275.858 414.176c3.422 3.046 5.545 7.298 5.545 12 0 9.286-8.279 16.824-18.478 16.824-10.197 0-18.477-7.538-18.477-16.824 0-4.702 2.122-8.954 5.545-12z" fill="#fff"/></mask><mask id="c" height="34" maskUnits="userSpaceOnUse" width="38" x="293" y="409"><path d="M312.199 442.996c10.204 0 18.477-7.531 18.477-16.82 0-9.29-8.273-16.82-18.477-16.82-10.205 0-18.478 7.53-18.478 16.82 0 9.289 8.273 16.82 18.478 16.82z" fill="#fff"/></mask><g clip-path="url(#a)"><path d="M0 0h800v465H0z" fill="#001d3d"/><path clip-rule="evenodd" d="M275.858 414.176c3.422 3.046 5.545 7.298 5.545 12 0 9.286-8.279 16.824-18.478 16.824-10.197 0-18.477-7.538-18.477-16.824 0-4.702 2.122-8.954 5.545-12z" fill="#001d3d" fill-rule="evenodd"/><g mask="url(#b)"><path d="M266.62 434.791c5.227 0 9.465-3.857 9.465-8.615s-4.238-8.615-9.465-8.615c-5.226 0-9.464 3.857-9.464 8.615s4.238 8.615 9.464 8.615z" fill="#001d3d" stroke="#fff" stroke-width=".5"/></g><path clip-rule="evenodd" d="M275.858 414.176c3.422 3.046 5.545 7.298 5.545 12 0 9.286-8.279 16.824-18.478 16.824-10.197 0-18.477-7.538-18.477-16.824 0-4.702 2.122-8.954 5.545-12z" stroke="#fff" stroke-width=".5"/><path d="M312.199 442.996c10.204 0 18.477-7.531 18.477-16.82 0-9.29-8.273-16.82-18.477-16.82-10.205 0-18.478 7.53-18.478 16.82 0 9.289 8.273 16.82 18.478 16.82z" fill="#001d3d"/><g mask="url(#c)"><path d="M315.894 434.792c5.227 0 9.464-3.857 9.464-8.615s-4.237-8.615-9.464-8.615-9.464 3.857-9.464 8.615 4.237 8.615 9.464 8.615z" fill="#001d3d" stroke="#fff" stroke-width=".5"/></g><g stroke="#fff" stroke-width=".5"><path d="M312.199 442.996c10.204 0 18.477-7.531 18.477-16.82 0-9.29-8.273-16.82-18.477-16.82-10.205 0-18.478 7.53-18.478 16.82 0 9.289 8.273 16.82 18.478 16.82z"/><path clip-rule="evenodd" d="M219.399 411.021c-7.915-5.796-21.845-17.876-5.695-21.045 4.378-.862 10.856-.517 18.471.621l.326.043c13.832 2.062 31.345 6.646 46.883 11.231h195.879v12.307H275.858c-.157-.141-51.889 0-51.889 0s-1.866-1.175-4.385-3.021zM496.691 200.74c5.321 5.367 9.602 14.254 11.881 28.184 10.47 63.995 9.855 68.918 9.855 68.918l-9.412 8.536s-15.268-6.037-29.108 9.673c-7.619 9.397-8.346 24.276-8.346 24.276l-14.862 13.471-.037-.025c-14.232-18.762-36.34-47.697-42.324-54.491-3.584-4.067-6.65-7.329-10.788-9.729l-.198-.11 39.318-76.838s42.497-5.629 47.018-7.271c1.952-.71 4.835-1.807 7.003-4.594z" fill="#001d3d" fill-rule="evenodd"/><path clip-rule="evenodd" d="M471.568 340.284c.049-.88.954-15.125 8.339-24.233 13.84-15.71 29.108-9.673 29.108-9.673l12.011 64.915c-13.205-17.63-33.598-6.991-41.901 3.243l-7.563-34.209z" fill="#001d3d" fill-rule="evenodd"/><path clip-rule="evenodd" d="M375.415 84.184c-1.813 2.245-2.748 3.676-2.748 3.676l-.035-1.322c-.093-5.923.183-30.02 10.602-36.482 11.908-7.384 42.026-13.665 57.968 6.705a35.456 35.456 0 0 1 1.47 2.016c-19.908-5.158-36.233.46-48.092 8.103l-16.426 14.107-.679.74-1.973 2.35z"/><path clip-rule="evenodd" d="M379.077 79.975c3.239-3.505 7.669-7.699 13.188-11.546 12.007-8.392 29.169-15.155 50.407-9.652l2.669.715c12.214 3.692 25.894 11.897 18.232 18.871-3.628 3.3-22.371 17.641-22.371 17.641l-1.412-.168-.147-.508a18.521 18.521 0 0 0-.089-.295c-.209-.683.236.803.236.803s-9.336-12.755-26.273-16.14c-16.916-3.38-35.625 3.203-37.999 4.376a77.095 77.095 0 0 1 3.559-4.097z" fill="#fff" fill-rule="evenodd"/><path clip-rule="evenodd" d="M479.587 374.007l-.364.406-.098.123c-4.355 5.36-6.88 22.153-8.284 36.91l-12.978-4.683s24.637-12.308 11.29-36.51z"/><path clip-rule="evenodd" d="M510.167 420.301l-40.336 3.661c.246-3.729.572-8.03 1.01-12.516l.061-.696c1.417-14.584 3.942-30.934 8.223-36.214l.098-.123.364-.406.098-.117c8.611-10.025 28.412-19.852 41.341-2.597l.252.332a166.544 166.544 0 0 1 6.221 8.966c-.419.246-.419.246 0 0 8.013 12.148 14.874 25.199 18.989 33.519-7.681-7.083-17.437-14.818-23.338-14.922-10.883-.197-12.983 21.113-12.983 21.113z" fill="#fff" fill-rule="evenodd"/><path clip-rule="evenodd" d="M550.46 433.064c-.308 1.144-.622 1.803-.622 1.803l-80.685 1.643s.166-5.163.678-12.548l40.336-3.661.012-.055c.13-1.25 2.427-21.249 12.971-21.058l1.152.104c1.109.179 2.328.579 3.616 1.157a30.45 30.45 0 0 1 3.683 1.957c4.853 2.911 10.249 7.428 14.887 11.704l2.944 5.988c2.519 5.317 1.792 10.252 1.059 12.849z" fill="#001d3d" fill-rule="evenodd"/><path clip-rule="evenodd" d="M428.189 133.734A35.746 35.746 0 0 1 414.435 141l-.072.02c-3.107.901-6.389 1.362-9.779 1.362-6.75 0-13.076-1.829-18.491-5.051l-.063-.037c-10.816-6.334-18.064-18.077-18.064-31.498 0-6.518 1.709-12.64 4.726-17.933l.162-.265c.358-.525 1.253-1.793 2.664-3.526 2.374-1.173 21.083-7.755 37.999-4.375 16.938 3.384 26.273 16.14 26.273 16.14l.044.147.198.792 1.435.686z"/><path clip-rule="evenodd" d="M442.262 95.292c8.42-4.282 15.441-7.173 18.57-7.961.715-.18 1.38-.26 2.002-.263h.129c4.952.07 6.954 5.186 6.954 5.186s22.173 64.409 27.919 86.152c3.234 12.225 1.663 18.744-1.139 22.396l-.068.086c-2.168 2.787-5.05 3.883-7.003 4.594-4.521 1.641-47.018 7.27-47.018 7.27l-.009-.048c-.178-.988-3.02-16.965-1.458-26.503 1.611-9.846 16.045-11.898 16.045-11.898l-9.3-53.742-15.748 16.898-4.011-3.555zm-12.892 37.42z" fill="#001d3d" fill-rule="evenodd"/><path clip-rule="evenodd" d="M541.603 372.967c-18.366 16.799 14.013 31.538 14.013 31.538l-5.273 16.405-.449-1.12s-13.92-27.359-21.933-39.506c4.194-2.511 8.894-5.219 13.642-7.317z" fill="#fff" fill-rule="evenodd"/><path clip-rule="evenodd" d="M541.603 372.967c9.602-4.283 19.377-6.099 25.407 1.132 12.318 14.769 6.978 50.866-5.34 57.432-2.261 1.207-6.061 1.527-10.748 1.225.69-2.381 1.423-6.886-.579-11.846l5.272-16.406s-32.378-14.738-14.012-31.537zm-17.258 2.929l-24.932-3.132.924 7.076 27.162.751zm-21.236 13.637l29.04-1.6 3.763 5.679-29.878 2.228z" fill="#001d3d" fill-rule="evenodd"/><path d="M484.065 417.632c5.896 0 10.675-6.612 10.675-14.768 0-8.157-4.779-14.769-10.675-14.769s-10.676 6.612-10.676 14.769c0 8.156 4.78 14.768 10.676 14.768z" fill="#001d3d"/><path clip-rule="evenodd" d="M308.76 408.603c-5.83-2.462-14.584-7.834-16.989-18.246-1.173-5.077 3.672-17.532 11.723-32.184l.409-.738 3.219-5.637 1.918-3.194 1.798-2.966 2.06-3.249 1.918-2.997 2.181-3.261 2.017-2.997 2.282-3.231 2.097-2.954 2.362-3.169 2.156-2.88 2.423-3.07 2.195-2.763 2.464-2.93 2.212-2.621 2.488-2.751 2.205-2.43 2.497-2.542 2.174-2.197 2.492-2.295 2.147-1.969 1.161-.973 1.076-.898 1.181-.923 1.054-.818 1.171-.844 1.03-.738 1.158-.757 1-.646 1.148-.665.964-.553 1.14-.567.921-.458 1.14-.469.864-.353 1.161-.366.782-.245 1.246-.259.63-.13 1.805-.158 5.848-.042 5.177.149 4.569.338c7.143.72 12.013 2.221 15.918 4.486l.198.11c4.138 2.4 7.204 5.662 10.788 9.729 5.983 6.794 28.092 35.729 42.324 54.491l2.63 3.453 9.861 13.027 1.146 2.234c10.68 22.732-12.436 34.276-12.436 34.276l-143.714 3.692s-2.211-.48-5.252-1.797z" fill="#001d3d" fill-rule="evenodd"/><path clip-rule="evenodd" d="M447.45 157.039a100.534 100.534 0 0 1 7.913 6.232l1.885 10.885s-14.434 2.051-16.046 11.897c-1.561 9.539 1.28 25.516 1.459 26.503l.009.049-39.318 76.837c-3.905-2.264-8.775-3.766-15.918-4.486l-4.569-.337-5.177-.149-5.848.042c-.59.013-1.192.067-1.805.158l-.007.001-.623.129-1.231.254-.029.008-.768.242-1.137.356-.046.016-.842.347-1.107.453-.064.029-.89.445-1.098.542-.082.043-.924.535-1.097.634-.1.062-.951.615-1.097.714-.12.08-.971.701-1.099.782-.139.104-.987.776-1.1.855-.159.129-.998.837-1.1.917-.178.154-2.03 1.871-2.379 2.178-.113.117-.105.092-2.069 2.105-2.364 2.394-.133.147-.124.13-2.081 2.301-2.337 2.572-.151.179-.143.16-2.069 2.461-2.296 2.714-.168.215-.16.185-2.035 2.579-2.24 2.824-.183.246-.175.222-1.981 2.658-2.167 2.892-.195.277-.189.253-1.908 2.701-2.078 2.929-.204.302-.2.283-1.817 2.714-1.973 2.935-.208.326-.209.308-1.709 2.689-1.851 2.898-.209.351-.214.332-1.584 2.634-1.713 2.831-.205.363-.216.357-1.445 2.547-1.558 2.733-.408.738c-8.052 14.652-12.897 27.107-11.724 32.184 2.424 10.492 11.298 15.87 17.126 18.301l.003.031-31.296-9.717 3.696-88.613 17.862-19.692-24.637-67.692s26.622-37.55 47.192-62.177c-8.099 28.06 8.856 51.807 8.856 51.807l37.393 47.292 4.655-52.688s7.955-3.308 11.034-7.417c3.51.608 7.297.927 11.384.927 2.388 0 4.655-.122 6.806-.385l8.132 24.59s25.077-33.459 34.644-59.076a96.482 96.482 0 0 0 2.829-8.809z" fill="#001d3d" fill-rule="evenodd"/><path clip-rule="evenodd" d="M384.659 137.39l1.434-.059c5.415 3.222 11.741 5.051 18.491 5.051 3.39 0 6.673-.461 9.779-1.362l1.377.418c-1.779.769-2.909.944-2.909.944l-19.947 30.851 8.961 27.102c-2.15.262-4.418.384-6.806.384-4.087 0-7.874-.319-11.384-.927l.065-.087c.661-.896 1.082-1.833 1.133-2.78.453-8.476-9.516-40.571-9.516-40.571l.045-18.296.525-.051z"/><path clip-rule="evenodd" d="M383.655 199.792c-3.079 4.109-11.034 7.417-11.034 7.417l-4.655 52.688-37.393-47.292s-16.955-23.747-8.856-51.807c.438-.529.874-1.051 1.307-1.567l-.185.213-1.122 1.354c3.38-11.885 11.271-24.535 26.821-36.487.61-3.186-3.183-14.564 3.9-25.494s23.08-14.745 23.08-14.745l2.558-2.738c2.552-4.72 5.398-5.778 5.398-5.778l-5.398 5.778c-2.348 4.343-4.448 11.788-3.852 24.363.627 13.227 11.806 31.597 11.806 31.597l-1.371.096-4.109.171-4.643.446-.525.037-.045 18.31s9.968 32.095 9.516 40.571c-.051.947-.472 1.883-1.133 2.78zm9.229-26.559l19.947-30.851s1.13-.175 2.909-.945l.139-.06c2.933-1.286 7.534-4.149 11.78-10.342l.53 2.721 4.01 3.555 15.749-16.898 2.685 15.503c-.173 6.445-1.103 13.525-3.183 21.123l-.977-.712c-1.084-.727-1.984-1.949-3.184-2.366l-.534-.126a93.318 93.318 0 0 1 4.695 3.204 96.599 96.599 0 0 1-2.829 8.81c-9.567 25.616-34.644 59.075-34.644 59.075zm46.99-21.184l-.496-.295-.501-.295c.335.197.668.393.997.59zm-1.961-1.146l.16.092zm-2.388-1.322l.114.061zm-97.074-.76l-.099.046.256-.118zm.517-.238l-.097.045.25-.114zm.516-.234l-.096.043.246-.111zm.514-.232l-.094.042.244-.108zm.514-.229l-.093.042.242-.107zm.513-.226l-.093.041.243-.106zm.512-.223l-.094.041.246-.107zm33.047-9.284a109.893 109.893 0 0 0-11.307 2.026c-3.865.9-7.823 2.032-11.87 3.422 8.097-2.78 15.831-4.529 23.177-5.448z" fill="#fff" fill-rule="evenodd"/><path clip-rule="evenodd" d="M219.585 411.157l-7.986 13.045-69.599.616 64.671-31.384 72.446-157.843 20.044 55.076-17.861 19.692-49.125 80.238c-7.615-1.138-14.093-1.483-18.471-.621-16.276 3.193-2 15.439 5.881 21.181z" fill="#001d3d" fill-rule="evenodd"/><path clip-rule="evenodd" d="M356.268 409.378s24.876-1.557 40.927-47.513c4.348-.11-14.838 46.843-14.838 46.843zm117.424-80.779s-23.946-22.56-26.822-38.56c-2.874-15.999-2.054 21.335 5.339 31.587 7.391 10.259 19.352 18.701 19.352 18.701z" fill="#fff" fill-rule="evenodd"/></g></g></svg>