<svg fill="none" height="465" viewBox="0 0 800 465" width="800" xmlns="http://www.w3.org/2000/svg" xmlns:xlink="http://www.w3.org/1999/xlink"><clipPath id="a"><path d="m0 0h800v465h-800z"/></clipPath><g clip-path="url(#a)"><path d="m0 0h800v465h-800z" fill="#001d3d"/><g clip-rule="evenodd" fill-rule="evenodd" stroke="#fff"><path d="m349.675 401.174-1.546 25.615v-7.767l-20.143-1.079 2.26-21.395z" fill="#001d3d" stroke-width=".595906"/><path d="m404.445 398.749 3.003 23.63 12.95.863 1.481-16.972z" fill="#001d3d" stroke-width=".595906"/><path d="m400.882 450.557 6.565-28.178 12.951.863s18.955 11.198 32.208 19.388c-7.593-3.128-13.431 7.798-13.431 7.798z" fill="#fff" stroke-width=".595906"/><path d="m400.882 450.557 38.293-.129s5.838-10.926 13.431-7.798c5.519 3.379 10.047 6.253 11.822 7.582 6.043 4.531 2.59 10.788 2.59 10.788l-67.988-2.494z" fill="#001d3d" stroke-width=".595906"/><path d="m327.986 417.943 20.143 1.079v7.767s-.358 5.394 2.879 10.788c2.429 4.048 3.894 13.554 4.476 18.055l.289 2.442s-6.923-19.345-22.886-16.324c-6.386 1.208-9.289 8.63-9.289 8.63l-11.085 2.46-2.513 5.666z" fill="#fff" stroke-width=".595906"/><path d="m310 458.506 2.513-5.666 11.085-2.46s2.903-7.422 9.289-8.63c13.967-2.645 21.014 11.837 22.558 15.5l.328.824z" fill="#001d3d" stroke-width=".595906"/><path d="m394.75 394.572 29.354 12.656 5.595-155.244-39.625-13.354z" fill="#001d3d" stroke-width=".634948"/><path d="m345.585 266.604-5.424-3.148.396 20.764 2.272 2.649z" fill="#001d3d" stroke-width=".595906"/><path d="m351.173 225.521 38.901 13.109-25.684 157.918-8.617 6.076-27.787-6.615z" fill="#001d3d" stroke-width=".634948"/><path d="m403.774 103.521c20.053 4.683 30.673 16.417 30.673 16.417l-4.748 132.046-79.948-26.463 6.421-59.985-10.471-54.033c19.908-9.237 36.72-11.011 50.169-9.387l.024.699-.024.183.046.455.002.021c.217 1.811 1.766 3.21 3.639 3.21 1.906 0 3.476-1.448 3.649-3.305l.451.115z" fill="#001d3d" stroke-width=".634948"/><path d="m398.671 241.527 4.713 28.52 26.928-10.042-.613-8.021z" fill="#001d3d" stroke-width=".634948"/><path d="m390.074 238.63-1.798 42.378-40.147-39.481 1.622-16.006z" fill="#001d3d" stroke-width=".634948"/><path d="m345.701 111.716 10.072 54.359-10.174 100.426-6.733-3.908.432-144.417s.536-7.277 6.403-6.46z" fill="#001d3d" stroke-width=".634948"/><path d="m458.475 208.914 9.254 75.517-39.474 12.104 2.89-84.767z" fill="#fff" stroke-width=".634948"/><path d="m422.062 110.644 9.811 80.88 2.574-71.585s-8.992-7.677-12.385-9.295z" fill="#fff" stroke-width=".634948"/><path d="m451.865 263.286 6.61 14.384-26.502-1.726-.828-13.521z" fill="#001d3d" stroke-width=".671935"/><path d="m448.714 277.034v16.912l-4.627 2.589-.73-19.849z" fill="#001d3d" stroke-width=".634948"/><path d="m437.735 276.319.77 19.115h5.542l-.69-18.748z" fill="#001d3d" stroke-width=".634948"/><path d="m431.973 275.944-.828 12.737 6.975-2.804-.37-9.191z" fill="#001d3d" stroke-width=".634948"/><path d="m453.951 277.376-3.186 13.894h-2.051v-14.236z" fill="#001d3d" stroke-width=".634948"/><path d="m434.448 119.939s3.604-.781 4.899.945 20.936 69.259 18.993 83.284c-1.942 14.024-6.475 59.118-6.475 59.118l-20.72-.863-1.446-10.439z" fill="#001d3d" stroke-width=".634948"/><path d="m386.252 104.342 8.777-7.6235 2.59 21.4325-7.545 3.308z" fill="#001d3d" stroke-width=".595906"/><path d="m409.85 96.7185 1.87 14.9335-7.05 8.11-1.644-16.44z" fill="#001d3d" stroke-width=".595906"/><path d="m395.87 102.116v-.004c.553-2.114 3.173-9.1521 4.632-12.9982 2.872 1.5155 6.068 2.5541 9.464 3.0116l.423.2779-6.73 11.0827-.002.007-.451-.114c-.173 1.856-1.743 3.305-3.648 3.305-1.881 0-3.435-1.41-3.642-3.232l-.022-.637.09-.687z" stroke-width=".671935"/><path d="m444.383 111.75-30.396-15.0314-1.223-4.3441 1.223.0289c15.307 0 27.734-11.6015 27.734-25.8913zm-11.944-78.4461c-1.876 4.7955-12.229 17.0982-12.229 17.0982s-40.757-3.4125-28.274 26.7543c4.609 11.1393 8.849 15.247 8.849 15.247l-5.431 7.0092-12.843-2.694s-.72-26.035-1.007-31.6448c-.288-5.6098 3.453-3.5959 4.748-9.7813 1.295-6.185 7.194-28.3363 19.137-29.1993 11.943-.8631 23.742 4.5322 26.908 5.3586l.038-.0069c.799-.1437 13.64-2.3449 16.149 3.926 2.59 6.4728 2.59 19.85 1.511 21.5761-1.079 1.726-15.547 2.3733-15.547 2.3733zm9.141 33.2915c-.04.0263-.087.0586-.142.0966.03-.0211.057-.0397.082-.0565l.032-.0216c.009-.006.018-.0125.028-.0185zm.088-.057-.039.0246.067-.0414z" fill="#fff" stroke-width=".671935"/><path d="m409.887 92.1146c-3.367-.4647-6.536-1.4956-9.385-3.0008l-.05-.0259c-8.476-4.4175-14.2-12.8774-14.2-22.5759 0-14.2898 21.061-35.5569 36.368-35.5569 14.828 0 18.32 20.5525 19.065 34.2257l.036 1.3312-.036 1.3317c-.745 13.6732-12.87 24.5596-27.698 24.5596l-1.222-.0289-.173-.0073-2.626-.2417z" stroke-width=".671935"/></g></g></svg>