<svg fill="none" height="465" width="800" xmlns="http://www.w3.org/2000/svg"><clipPath id="a"><path d="M0 0h800v465H0z"/></clipPath><g clip-path="url(#a)"><path d="M0 0h800v465H0z" fill="#001d3d"/><g clip-rule="evenodd" fill-rule="evenodd" stroke="#fff"><path d="M349.675 401.174l-1.546 25.615v-7.767l-20.143-1.079 2.26-21.395zm54.77-2.425l3.003 23.63 12.95.863 1.481-16.972z" fill="#001d3d" stroke-width=".596"/><path d="M400.882 450.557l6.565-28.178 12.951.863s18.955 11.198 32.208 19.388c-7.593-3.128-13.431 7.798-13.431 7.798z" fill="#fff" stroke-width=".596"/><path d="M400.882 450.557l38.293-.129s5.838-10.926 13.431-7.798c5.519 3.379 10.047 6.253 11.822 7.582 6.043 4.531 2.59 10.788 2.59 10.788l-67.988-2.494z" fill="#001d3d" stroke-width=".596"/><path d="M327.986 417.943l20.143 1.079v7.767s-.358 5.394 2.879 10.788c2.429 4.048 3.894 13.554 4.476 18.055l.289 2.442s-6.923-19.345-22.886-16.324c-6.386 1.208-9.289 8.63-9.289 8.63l-11.085 2.46-2.513 5.666z" fill="#fff" stroke-width=".596"/><path d="M310 458.506l2.513-5.666 11.085-2.46s2.903-7.422 9.289-8.63c13.967-2.645 21.014 11.837 22.558 15.5l.328.824z" fill="#001d3d" stroke-width=".596"/><path d="M394.75 394.572l29.354 12.656 5.595-155.244-39.625-13.354z" fill="#001d3d" stroke-width=".635"/><path d="M345.585 266.604l-5.424-3.148.396 20.764 2.272 2.649z" fill="#001d3d" stroke-width=".596"/><path d="M351.173 225.521l38.901 13.109-25.684 157.918-8.617 6.076-27.787-6.615z" fill="#001d3d" stroke-width=".635"/><path d="M403.774 103.521c20.053 4.683 30.673 16.417 30.673 16.417l-4.748 132.046-79.948-26.463 6.421-59.985-10.471-54.033c19.908-9.237 36.72-11.011 50.169-9.387l.024.699-.024.183.046.455.002.021a3.659 3.659 0 0 0 3.639 3.21 3.657 3.657 0 0 0 3.649-3.305l.451.115z" fill="#001d3d" stroke-width=".635"/><path d="M398.671 241.527l4.713 28.52 26.928-10.042-.613-8.021zm-8.597-2.897l-1.798 42.378-40.147-39.481 1.622-16.006z" fill="#001d3d" stroke-width=".635"/><path d="M345.701 111.716l10.072 54.359-10.174 100.426-6.733-3.908.432-144.417s.536-7.277 6.403-6.46z" fill="#001d3d" stroke-width=".635"/><path d="M458.475 208.914l9.254 75.517-39.474 12.104 2.89-84.767zm-36.413-98.27l9.811 80.88 2.574-71.585s-8.992-7.677-12.385-9.295z" fill="#fff" stroke-width=".635"/><path d="M451.865 263.286l6.61 14.384-26.502-1.726-.828-13.521z" fill="#001d3d" stroke-width=".672"/><path d="M448.714 277.034v16.912l-4.627 2.589-.73-19.849z" fill="#001d3d" stroke-width=".635"/><path d="M437.735 276.319l.77 19.115h5.542l-.69-18.748z" fill="#001d3d" stroke-width=".635"/><path d="M431.973 275.944l-.828 12.737 6.975-2.804-.37-9.191zm21.978 1.432l-3.186 13.894h-2.051v-14.236zm-19.503-157.437s3.604-.781 4.899.945 20.936 69.259 18.993 83.284c-1.942 14.024-6.475 59.118-6.475 59.118l-20.72-.863-1.446-10.439z" fill="#001d3d" stroke-width=".635"/><path d="M386.252 104.342l8.777-7.623 2.59 21.432-7.545 3.308zm23.598-7.623l1.87 14.933-7.05 8.11-1.644-16.44z" fill="#001d3d" stroke-width=".596"/><path d="M395.87 102.116v-.004c.553-2.114 3.173-9.152 4.632-12.998a28.386 28.386 0 0 0 9.464 3.011l.423.278-6.73 11.083-.002.007-.451-.114a3.658 3.658 0 0 1-3.648 3.305 3.658 3.658 0 0 1-3.642-3.232l-.022-.637.09-.687z" stroke-width=".672"/><path d="M444.383 111.75l-30.396-15.031-1.223-4.344 1.223.028c15.307 0 27.734-11.601 27.734-25.89zm-11.944-78.446c-1.876 4.795-12.229 17.098-12.229 17.098s-40.757-3.412-28.274 26.754c4.609 11.14 8.849 15.247 8.849 15.247l-5.431 7.01-12.843-2.694s-.72-26.035-1.007-31.645c-.288-5.61 3.453-3.596 4.748-9.782 1.295-6.185 7.194-28.336 19.137-29.199 11.943-.863 23.742 4.532 26.908 5.359l.038-.007c.799-.144 13.64-2.345 16.149 3.926 2.59 6.473 2.59 19.85 1.511 21.576-1.079 1.726-15.547 2.373-15.547 2.373zm9.141 33.291a7.895 7.895 0 0 0-.06.04l.032-.021.028-.019zm.088-.057l-.039.025.067-.041z" fill="#fff" stroke-width=".672"/><path d="M409.887 92.115a28.38 28.38 0 0 1-9.385-3.001l-.05-.026c-8.476-4.418-14.2-12.877-14.2-22.576 0-14.29 21.061-35.557 36.368-35.557 14.828 0 18.32 20.553 19.065 34.226l.036 1.331-.036 1.332c-.745 13.673-12.87 24.56-27.698 24.56l-1.222-.03-.173-.007-2.626-.242z" stroke-width=".672"/></g></g></svg>