<svg fill="none" height="465" viewBox="0 0 800 465" width="800" xmlns="http://www.w3.org/2000/svg" xmlns:xlink="http://www.w3.org/1999/xlink"><clipPath id="a"><path d="m0 0h800v465h-800z"/></clipPath><mask id="b" height="699" maskUnits="userSpaceOnUse" width="357" x="192" y="-103"><path d="m549-103h-357v699h357z" fill="#fff"/></mask><g clip-path="url(#a)"><path d="m0 0h800v465h-800z" fill="#001d3d"/><g mask="url(#b)"><path d="m575.493 417.146h-967.293v179.071h967.293z" stroke="#fff" stroke-width=".589725"/><path clip-rule="evenodd" d="m427.007 247.232.045-.011c-.464-4.22-.65-8.579-.663-12.599l1.52 28.853-73.305-.055 2.66-38.603c2.466 1.554 5.272 3.26 8.325 5.014l-8.104-.196-.221 2.24c7.985 3.528 19.482 8.173 31.562 11.638 13.353 3.83 27.418 6.22 38.226 4.058z" fill="#fff" fill-rule="evenodd" stroke="#fff" stroke-width=".539536"/><path clip-rule="evenodd" d="m427.007 247.233-.022.005.022-.005.045.338c-10.808 2.162-24.873-.228-38.226-4.058-12.08-3.465-23.577-8.11-31.562-11.638l.221-2.24 68.343 1.651.561 7.458c.013 2.71.185 5.639.618 8.489zm-9.557 1.152h.062l-.137-.002zm-.141-.003.061.001-.137-.002zm-.146-.002.066.001-.137-.003zm-.142-.003.062.001-.128-.003zm-.141-.004.062.002-.128-.003zm-.146-.003.062.001-.124-.004zm-.141-.005.062.002-.124-.004zm-.146-.005.062.002-.12-.004zm-.141-.005.061.002-.119-.004zm-.146-.006.062.002-.115-.004zm-.142-.006.058.002-.111-.005zm-.145-.007.057.003-.106-.005zm-.146-.007.057.003-.101-.006zm-.146-.008.057.003-.101-.005zm-.142-.008.054.003-.098-.005zm-.145-.008.053.003-.093-.006zm-.146-.009.053.003-.093-.006zm-.146-.01.053.004-.088-.006zm-.146-.01.053.004-.088-.006zm-.146-.01.053.004-.084-.006zm-.145-.01.048.003-.079-.006zm-.146-.012.048.004-.079-.006zm-.146-.011.044.004-.071-.007zm-.146-.012.044.003-.07-.006zm-.146-.013.045.004-.071-.006zm-.15-.013.044.004-.066-.006zm-.146-.013.04.003-.062-.005zm-.146-.014.04.004-.057-.006zm-.145-.014.035.003-.053-.005zm-.151-.015.036.003-.053-.004zm-.145-.015.031.003-.049-.004zm-.151-.016.031.004-.044-.005zm13.424-.704c-.115.03-.225.058-.34.086-.115.027-.225.054-.34.081.225-.053.455-.108.68-.167z" fill="#001d3d" fill-rule="evenodd"/><g stroke="#fff" stroke-width=".539536"><path d="m427.007 247.233-.022.005zm0 0 .045.338c-10.808 2.162-24.873-.228-38.226-4.058-12.08-3.465-23.577-8.11-31.562-11.638l.221-2.24 68.343 1.651.561 7.458c.013 2.71.185 5.639.618 8.489zm-9.557 1.152h.062l-.137-.002zm-.141-.003.061.001-.137-.002zm-.146-.002.066.001-.137-.003zm-.142-.003.062.001-.128-.003zm-.141-.004.062.002-.128-.003zm-.146-.003.062.001-.124-.004zm-.141-.005.062.002-.124-.004zm-.146-.005.062.002-.12-.004zm-.141-.005.061.002-.119-.004zm-.146-.006.062.002-.115-.004zm-.142-.006.058.002-.111-.005zm-.145-.007.057.003-.106-.005zm-.146-.007.057.003-.101-.006zm-.146-.008.057.003-.101-.005zm-.142-.008.054.003-.098-.005zm-.145-.008.053.003-.093-.006zm-.146-.009.053.003-.093-.006zm-.146-.01.053.004-.088-.006zm-.146-.01.053.004-.088-.006zm-.146-.01.053.004-.084-.006zm-.145-.01.048.003-.079-.006zm-.146-.012.048.004-.079-.006zm-.146-.011.044.004-.071-.007zm-.146-.012.044.003-.07-.006zm-.146-.013.045.004-.071-.006zm-.15-.013.044.004-.066-.006zm-.146-.013.04.003-.062-.005zm-.146-.014.04.004-.057-.006zm-.145-.014.035.003-.053-.005zm-.151-.015.036.003-.053-.004zm-.145-.015.031.003-.049-.004zm-.151-.016.031.004-.044-.005zm13.424-.704c-.115.03-.225.058-.34.086-.115.027-.225.054-.34.081.225-.053.455-.108.68-.167z"/><path clip-rule="evenodd" d="m412.152 118.22c4.485 1.531 8.912 3.524 13.159 4.831l-89.035 102.691s.883 2.945 1.476 8.246c-1.503 3.154-6.094 15.67-9.509 28.347-.774.522-1.436 1.092-1.98 1.689-3.535-2.944-6.186-3.533-4.714-15.901 1.471-12.369 19.737-104.54 31.226-121.62 1.794-2.671 4.485-4.895 7.79-6.734 2.452 2.532 6.23 4.298 11.974 4.153 4.976-2.689 11.263-4.232 15.421-5.022.385.307.791.593 1.215.862l.067.045c2.92 1.874 6.513 2.974 10.397 2.974 2.699 0 5.258-.531 7.547-1.49l.057-.023c1.834-.763 3.495-1.797 4.909-3.048zm30.427 2.551c2.788 2.898 5.01 6.551 6.225 11.033 3.831 14.135 3.831 103.067-.587 115.73-4.419 12.662-9.43 15.902-9.43 15.902l-11.28-7.652-1.118-21.162c.013 4.02.199 8.379.663 12.599l-.045.011c-.433-2.849-.605-5.778-.618-8.488l-.561-7.458-49.113-1.186h-19.813l-1.626 23.547c-14.286-5.96-13.402-19.659-12.222-24.96.976-4.398 64.485-79.265 86.088-104.622 4.887.972 9.442.507 13.437-3.294z" fill="#001d3d" fill-rule="evenodd"/><path clip-rule="evenodd" d="m425.311 123.052c1.25.407 2.492.742 3.711.989l.12.024c-21.603 25.358-85.112 100.224-86.088 104.622-1.144 5.135-2.006 18.151 10.927 24.379l1.295.581c-1.326 16.561-2.501 44.243-2.501 44.243s-21.802 2.355-27.395-6.773c-2.643-4.303-.433-16.617 2.863-28.782l.159-.594c3.398-12.471 7.869-24.648 9.35-27.753-.592-5.301-1.476-8.245-1.476-8.245z" fill="#fff" fill-rule="evenodd"/><path clip-rule="evenodd" d="m406.633 116.649c1.798.37 3.588.906 5.373 1.521l.141.049c-1.427 1.263-3.106 2.301-4.962 3.063v.009l-1.754.634 1.754-.643zm-23.083-3.801c2.271-.356 4.56-.646 6.831-.87-.013 1.828-.159 3.528-.455 5.014-1.798-.915-4.264-2.338-6.376-4.144zm27.223-1.916c-.954 2.239-2.342 3.307-4.339 4.043l-.473-3.99z" fill="#001d3d" fill-rule="evenodd"/><path clip-rule="evenodd" d="m403.682 91.7606 3.504 29.5304-1.755.634-.061.016-1.6.403-.499.096-1.295.192-.526.06-1.811.089-1.423-.051-.455-.046-.937-.101-.508-.088-.853-.153-.495-.12-.835-.213-.442-.14-.853-.284-.362-.143-.897-.372-.265-.124-.959-.482-.141-.079-1.039-.623c.544-1.352.897-3.063 1.074-5.006.018-1.144-.013-2.489-.084-3.945l.062.05c-.349-4.847-1.171-11.4635-2.227-14.9292 5.581.5331 11.06-1.0297 15.682-4.1712z" fill="#001d3d" fill-rule="evenodd"/><path clip-rule="evenodd" d="m380.312 93.8235c-.805-.3692-1.578-.7964-2.32-1.2655l-.106-.0667c-9.01-5.6959-13.83-17.4536-11.153-29.448 1.26-5.6663 4.017-10.5756 7.693-14.3147.95-.9705 1.958-1.8628 3.027-2.6601l12.465 5.044s-3.531-7.3484 10.251-8.7548l.053.0185c.676.3958 11.413 7.1391 12.606 33.7923l.013.3052c.071 1.5293.102 3.1217.102 4.7816-2.223 4.3249-5.413 7.9063-9.173 10.4458l-.088.0596c-4.043 2.7488-8.745 4.2891-13.596 4.2737l-2.086-.1025-.093-.0067c-.919-.0693-1.838-.2151-2.757-.4201-1.577-.3507-3.08-.8591-4.494-1.527z" fill="#001d3d" fill-rule="evenodd"/><path clip-rule="evenodd" d="m403.682 91.7606.088-.0596c3.76-2.5394-.561-6.7097 5.196-11.6238 0 0-8.448-4.2179-12.045-14.7211-4.878-14.2238 3.831-22.6699 3.301-22.9799l-.031-.0217c2.223-.9289 4.405-1.3371 6.531-1.3318l.194.0018c14.754.216 24.903 17.4752 21.002 25.9898 4.418 1.3251 11.709 5.7423 8.616 11.2638 6.628 2.4294 6.186 17.6687 3.093 21.4233 7.512-.4417 13.698 10.8216 2.974 21.0536l-.067.06c-3.985 3.761-8.523 4.219-13.392 3.25l-.12-.024c-1.219-.247-2.461-.582-3.711-.99l-.102-.03c-4.206-1.319-7.94 1.567-12.394.058 0 0-15.129-4.161-13.464-17.39.743-5.859 4.331-13.9284 4.331-13.9284zm-20.109 21.1084c2.112 1.795 4.56 3.215 6.354 4.123l.03.018c1.459.76 2.466 1.17 2.466 1.17s-1.109.126-2.885.448l-1.454.247-.124.025c-4.158.79-10.445 2.333-15.421 5.022-5.744.145-9.522-1.621-11.974-4.153l-.031-.03c-4.989-5.142-4.494-13.405-3.902-15.032-3.976-2.429-3.314-5.0794-1.104-7.7297-22.093-15.9018 5.744-27.8282 5.744-27.8282-9.279-14.135 6.407-16.5644 13.154-20.433v.0124c-3.676 3.7391-6.433 8.6484-7.693 14.3147-2.686 12.0417 2.179 23.844 11.259 29.5147v.0124c.411 3.3712-.358 7.5797 1.312 14.3317.557 2.244 2.245 4.264 4.247 5.946zm-2.917-18.8909c1.414.6679 2.917 1.1763 4.494 1.527.919.2049 1.838.3507 2.757.4201l.093.0066c1.224 4.0161 1.935 10.0562 2.165 14.8792-6.314-4.844-8.665-12.4082-9.509-16.8329zm-3.203-47.9096c.283-.2165 0 0 0 0l-6.093-2.4653c7.953-18.1104 28.058-7.5092 28.831-1.2487l-.022.0031c-13.782 1.4064-10.251 8.7549-10.251 8.7549z" fill="#fff" fill-rule="evenodd"/><path clip-rule="evenodd" d="m411.794 65.9489s6.063-1.8437 7.538 1.69c1.472 3.5338-3.093 9.2761-3.093 9.2761z" fill="#001d3d" fill-rule="evenodd"/><path clip-rule="evenodd" d="m433.772 260.034s-2.364 9.727-4.427 11.2c-2.059 1.472-2.21-1.031-2.21-1.031l1.034-6.773v-7.509z" fill="#001d3d" fill-rule="evenodd"/><path clip-rule="evenodd" d="m438.787 263.436s-2.222 11.626-6.495 16.78c-3.239-2.651-1.767-3.976-1.767-3.976s4.14-12.976 3.247-16.206c3.968 1.04 5.015 3.402 5.015 3.402z" fill="#001d3d" fill-rule="evenodd"/><path clip-rule="evenodd" d="m322.927 261.088s-2.554 5.166-1.379 9.289c1.18 4.123 2.36 6.037 2.36 6.037l1.781-3.383-.751-5.599 1.325-3.408z" fill="#001d3d" fill-rule="evenodd"/><path d="m348.652 211.468 8.687-62.048"/><path clip-rule="evenodd" d="m396.656 349.817 19.437 7.942 11.816-94.284-30.824-.023zm-39.944.627c-2.395-7.632-4.123-14.115-4.529-17.953-1.145-10.809.689-43.559 2.434-69.071l30.741.023c-4.366 28.329-9.598 65.45-7.989 70.815.517 1.724 1.303 5.62 2.214 10.777z" fill="#001d3d" fill-rule="evenodd"/><path clip-rule="evenodd" d="m418.095 390.375-2.209 20.099-20.768-.221-4.197-19.657z" fill="#001d3d" fill-rule="evenodd"/><path clip-rule="evenodd" d="m377.241 447.644c1.789-7.16 7.047-26.11 14.347-34.379l.053-.061c1.104-1.268 2.271-2.275 3.477-2.951 9.058.663 20.768.221 20.768.221s17.674 28.932 15.907 42.184c-8.838.442-55.233-2.209-55.233-2.209s.203-.914.601-2.473z" fill="#001d3d" fill-rule="evenodd"/><path clip-rule="evenodd" d="m371.209 391.502c-4.613-12.174-10.489-28.235-14.497-41.058l22.871-5.409c1.931 10.622 4.471 26.59 6.526 39.903l3.632 23.972-10.013-19.047zm25.244-.95 15.544-.123 4.097-32.67-19.438-7.942z" fill="#fff" fill-rule="evenodd"/><path clip-rule="evenodd" d="m379.728 389.863 10.013 19.047-23.268 3.039-10.826-17.448z" fill="#001d3d" fill-rule="evenodd"/><path clip-rule="evenodd" d="m363.11 419.312c2.055-2.778 3.362-5.539 3.362-7.363l23.269-3.039c.68 1.506 1.294 2.955 1.847 4.355-7.41 8.402-12.726 27.82-14.427 34.711-11.996.044-30.692.044-36.537-.248-2.523-7.372 4.666-14.4 10.794-18.393v.044h21.064v-2.354h-17.25l1.029-.711c.385-.301.773-.601 1.158-.906l.689-.592h13.194v-1.767h-11.329l.707-.737 1.241-1.471h8.537v-1.529z" fill="#001d3d" fill-rule="evenodd"/><path d="m342.559 437.582h28.08"/><path d="m382.128 440.789h42.418"/></g><path clip-rule="evenodd" d="m355.232 427.025h17.25v2.354h-21.064v-.044l2.462-1.484c.455-.252.905-.526 1.352-.826z" fill="#fff" fill-rule="evenodd"/><path clip-rule="evenodd" d="m359.973 423.049h11.329v1.767h-13.194c.641-.561 1.268-1.153 1.865-1.767z" fill="#fff" fill-rule="evenodd"/><path clip-rule="evenodd" d="m363.11 419.312-.53.751-.659.778h8.537v-1.529z" fill="#fff" fill-rule="evenodd"/><path d="m416.225 427.467h-21.062v2.355h21.062z" fill="#fff"/><path d="m415.048 423.491h-18.264v1.767h18.264z" fill="#fff"/><path d="m414.203 419.754h-15.802v1.529h15.802z" fill="#fff"/></g></g></svg>