<svg fill="none" height="465" width="800" xmlns="http://www.w3.org/2000/svg"><clipPath id="a"><path d="M0 0h800v465H0z"/></clipPath><mask id="b" height="699" maskUnits="userSpaceOnUse" width="357" x="192" y="-103"><path d="M549-103H192v699h357z" fill="#fff"/></mask><g clip-path="url(#a)"><path d="M0 0h800v465H0z" fill="#001d3d"/><g mask="url(#b)"><path d="M575.493 417.146H-391.8v179.071h967.293z" stroke="#fff" stroke-width=".59"/><path clip-rule="evenodd" d="M427.007 247.232l.045-.011c-.464-4.22-.65-8.579-.663-12.599l1.52 28.853-73.305-.055 2.66-38.603a238.86 238.86 0 0 0 8.325 5.014l-8.104-.196-.221 2.24c7.985 3.528 19.482 8.173 31.562 11.638 13.353 3.83 27.418 6.22 38.226 4.058z" fill="#fff" fill-rule="evenodd" stroke="#fff" stroke-width=".54"/><path clip-rule="evenodd" d="M427.007 247.233l-.022.005.022-.005.045.338c-10.808 2.162-24.873-.228-38.226-4.058-12.08-3.465-23.577-8.11-31.562-11.638l.221-2.24 68.343 1.651.561 7.458c.013 2.71.185 5.639.618 8.489zm-9.557 1.152h.062l-.137-.002zm-.141-.003l.061.001-.137-.002zm-.146-.002l.066.001-.137-.003zm-.142-.003l.062.001-.128-.003zm-.141-.004l.062.002-.128-.003zm-.146-.003l.062.001-.124-.004zm-.141-.005l.062.002-.124-.004zm-.146-.005l.062.002-.12-.004zm-.141-.005l.061.002-.119-.004zm-.146-.006l.062.002-.115-.004zm-.142-.006l.058.002-.111-.005zm-.145-.007l.057.003-.106-.005zm-.146-.007l.057.003-.101-.006zm-.146-.008l.057.003-.101-.005zm-.142-.008l.054.003-.098-.005zm-.145-.008l.053.003-.093-.006zm-.146-.009l.053.003-.093-.006zm-.146-.01l.053.004-.088-.006zm-.146-.01l.053.004-.088-.006zm-.146-.01l.053.004-.084-.006zm-.145-.01l.048.003-.079-.006zm-.146-.012l.048.004-.079-.006zm-.146-.011l.044.004-.071-.007zm-.146-.012l.044.003-.07-.006zm-.146-.013l.045.004-.071-.006zm-.15-.013l.044.004-.066-.006zm-.146-.013l.04.003-.062-.005zm-.146-.014l.04.004-.057-.006zm-.145-.014l.035.003-.053-.005zm-.151-.015l.036.003-.053-.004zm-.145-.015l.031.003-.049-.004zm-.151-.016l.031.004-.044-.005zm13.424-.704c-.115.03-.225.058-.34.086l-.34.081c.225-.053.455-.108.68-.167z" fill="#001d3d" fill-rule="evenodd"/><g stroke="#fff" stroke-width=".54"><path d="M427.007 247.233l-.022.005zm0 0l.045.338c-10.808 2.162-24.873-.228-38.226-4.058-12.08-3.465-23.577-8.11-31.562-11.638l.221-2.24 68.343 1.651.561 7.458c.013 2.71.185 5.639.618 8.489zm-9.557 1.152h.062l-.137-.002zm-.141-.003l.061.001-.137-.002zm-.146-.002l.066.001-.137-.003zm-.142-.003l.062.001-.128-.003zm-.141-.004l.062.002-.128-.003zm-.146-.003l.062.001-.124-.004zm-.141-.005l.062.002-.124-.004zm-.146-.005l.062.002-.12-.004zm-.141-.005l.061.002-.119-.004zm-.146-.006l.062.002-.115-.004zm-.142-.006l.058.002-.111-.005zm-.145-.007l.057.003-.106-.005zm-.146-.007l.057.003-.101-.006zm-.146-.008l.057.003-.101-.005zm-.142-.008l.054.003-.098-.005zm-.145-.008l.053.003-.093-.006zm-.146-.009l.053.003-.093-.006zm-.146-.01l.053.004-.088-.006zm-.146-.01l.053.004-.088-.006zm-.146-.01l.053.004-.084-.006zm-.145-.01l.048.003-.079-.006zm-.146-.012l.048.004-.079-.006zm-.146-.011l.044.004-.071-.007zm-.146-.012l.044.003-.07-.006zm-.146-.013l.045.004-.071-.006zm-.15-.013l.044.004-.066-.006zm-.146-.013l.04.003-.062-.005zm-.146-.014l.04.004-.057-.006zm-.145-.014l.035.003-.053-.005zm-.151-.015l.036.003-.053-.004zm-.145-.015l.031.003-.049-.004zm-.151-.016l.031.004-.044-.005zm13.424-.704c-.115.03-.225.058-.34.086l-.34.081c.225-.053.455-.108.68-.167z"/><path clip-rule="evenodd" d="M412.152 118.22c4.485 1.531 8.912 3.524 13.159 4.831l-89.035 102.691s.883 2.945 1.476 8.246c-1.503 3.154-6.094 15.67-9.509 28.347a10.967 10.967 0 0 0-1.98 1.689c-3.535-2.944-6.186-3.533-4.714-15.901 1.471-12.369 19.737-104.54 31.226-121.62 1.794-2.671 4.485-4.895 7.79-6.734 2.452 2.532 6.23 4.298 11.974 4.153 4.976-2.689 11.263-4.232 15.421-5.022.385.307.791.593 1.215.862l.067.045c2.92 1.874 6.513 2.974 10.397 2.974 2.699 0 5.258-.531 7.547-1.49l.057-.023a17.612 17.612 0 0 0 4.909-3.048zm30.427 2.551c2.788 2.898 5.01 6.551 6.225 11.033 3.831 14.135 3.831 103.067-.587 115.73-4.419 12.662-9.43 15.902-9.43 15.902l-11.28-7.652-1.118-21.162c.013 4.02.199 8.379.663 12.599l-.045.011c-.433-2.849-.605-5.778-.618-8.488l-.561-7.458-49.113-1.186h-19.813l-1.626 23.547c-14.286-5.96-13.402-19.659-12.222-24.96.976-4.398 64.485-79.265 86.088-104.622 4.887.972 9.442.507 13.437-3.294z" fill="#001d3d" fill-rule="evenodd"/><path clip-rule="evenodd" d="M425.311 123.052c1.25.407 2.492.742 3.711.989l.12.024c-21.603 25.358-85.112 100.224-86.088 104.622-1.144 5.135-2.006 18.151 10.927 24.379l1.295.581c-1.326 16.561-2.501 44.243-2.501 44.243s-21.802 2.355-27.395-6.773c-2.643-4.303-.433-16.617 2.863-28.782l.159-.594c3.398-12.471 7.869-24.648 9.35-27.753-.592-5.301-1.476-8.245-1.476-8.245z" fill="#fff" fill-rule="evenodd"/><path clip-rule="evenodd" d="M406.633 116.649c1.798.37 3.588.906 5.373 1.521l.141.049a17.512 17.512 0 0 1-4.962 3.063v.009l-1.754.634 1.754-.643zm-23.083-3.801c2.271-.356 4.56-.646 6.831-.87-.013 1.828-.159 3.528-.455 5.014-1.798-.915-4.264-2.338-6.376-4.144zm27.223-1.916c-.954 2.239-2.342 3.307-4.339 4.043l-.473-3.99z" fill="#001d3d" fill-rule="evenodd"/><path clip-rule="evenodd" d="M403.682 91.76l3.504 29.531-1.755.634-.061.016-1.6.403-.499.096-1.295.192-.526.06-1.811.089-1.423-.051-.455-.046-.937-.101-.508-.088-.853-.153-.495-.12-.835-.213-.442-.14-.853-.284-.362-.143-.897-.372-.265-.124-.959-.482-.141-.079-1.039-.623c.544-1.352.897-3.063 1.074-5.006a62.824 62.824 0 0 0-.084-3.945l.062.05c-.349-4.847-1.171-11.463-2.227-14.93 5.581.534 11.06-1.029 15.682-4.17z" fill="#001d3d" fill-rule="evenodd"/><path clip-rule="evenodd" d="M380.312 93.823a19.772 19.772 0 0 1-2.32-1.265l-.106-.067c-9.01-5.696-13.83-17.453-11.153-29.448 1.26-5.666 4.017-10.575 7.693-14.314a25.98 25.98 0 0 1 3.027-2.66l12.465 5.043s-3.531-7.348 10.251-8.754l.053.018c.676.396 11.413 7.14 12.606 33.792l.013.306c.071 1.529.102 3.121.102 4.781-2.223 4.325-5.413 7.907-9.173 10.446l-.088.06c-4.043 2.749-8.745 4.289-13.596 4.273L388 95.932l-.093-.007a19.35 19.35 0 0 1-2.757-.42 21.35 21.35 0 0 1-4.494-1.527z" fill="#001d3d" fill-rule="evenodd"/><path clip-rule="evenodd" d="M403.682 91.76l.088-.059c3.76-2.54-.561-6.71 5.196-11.624 0 0-8.448-4.218-12.045-14.72-4.878-14.225 3.831-22.67 3.301-22.98l-.031-.023c2.223-.928 4.405-1.337 6.531-1.331l.194.001c14.754.216 24.903 17.476 21.002 25.99 4.418 1.325 11.709 5.743 8.616 11.264 6.628 2.43 6.186 17.669 3.093 21.423 7.512-.441 13.698 10.822 2.974 21.054l-.067.06c-3.985 3.761-8.523 4.219-13.392 3.25l-.12-.024a33.343 33.343 0 0 1-3.711-.99l-.102-.03c-4.206-1.319-7.94 1.567-12.394.058 0 0-15.129-4.161-13.464-17.39.743-5.859 4.331-13.928 4.331-13.928zm-20.109 21.109c2.112 1.795 4.56 3.215 6.354 4.123l.03.018c1.459.76 2.466 1.17 2.466 1.17s-1.109.126-2.885.448l-1.454.247-.124.025c-4.158.79-10.445 2.333-15.421 5.022-5.744.145-9.522-1.621-11.974-4.153l-.031-.03c-4.989-5.142-4.494-13.405-3.902-15.032-3.976-2.429-3.314-5.08-1.104-7.73-22.093-15.901 5.744-27.828 5.744-27.828-9.279-14.135 6.407-16.564 13.154-20.433v.013c-3.676 3.739-6.433 8.648-7.693 14.314-2.686 12.042 2.179 23.844 11.259 29.515v.012c.411 3.372-.358 7.58 1.312 14.332.557 2.244 2.245 4.264 4.247 5.946zm-2.917-18.89a21.35 21.35 0 0 0 4.494 1.526c.919.205 1.838.35 2.757.42l.093.007c1.224 4.016 1.935 10.056 2.165 14.879-6.314-4.844-8.665-12.408-9.509-16.833zm-3.203-47.91c.283-.217 0 0 0 0l-6.093-2.466c7.953-18.11 28.058-7.509 28.831-1.249l-.022.004c-13.782 1.406-10.251 8.755-10.251 8.755z" fill="#fff" fill-rule="evenodd"/><path clip-rule="evenodd" d="M411.794 65.949s6.063-1.844 7.538 1.69c1.472 3.534-3.093 9.276-3.093 9.276zm21.978 194.085s-2.364 9.727-4.427 11.2c-2.059 1.472-2.21-1.031-2.21-1.031l1.034-6.773v-7.509zm5.015 3.402s-2.222 11.626-6.495 16.78c-3.239-2.651-1.767-3.976-1.767-3.976s4.14-12.976 3.247-16.206c3.968 1.04 5.015 3.402 5.015 3.402zm-115.86-2.348s-2.554 5.166-1.379 9.289c1.18 4.123 2.36 6.037 2.36 6.037l1.781-3.383-.751-5.599 1.325-3.408z" fill="#001d3d" fill-rule="evenodd"/><path d="M348.652 211.468l8.687-62.048"/><path clip-rule="evenodd" d="M396.656 349.817l19.437 7.942 11.816-94.284-30.824-.023zm-39.944.627c-2.395-7.632-4.123-14.115-4.529-17.953-1.145-10.809.689-43.559 2.434-69.071l30.741.023c-4.366 28.329-9.598 65.45-7.989 70.815.517 1.724 1.303 5.62 2.214 10.777zm61.383 39.931l-2.209 20.099-20.768-.221-4.197-19.657zm-40.854 57.269c1.789-7.16 7.047-26.11 14.347-34.379l.053-.061c1.104-1.268 2.271-2.275 3.477-2.951 9.058.663 20.768.221 20.768.221s17.674 28.932 15.907 42.184c-8.838.442-55.233-2.209-55.233-2.209s.203-.914.601-2.473z" fill="#001d3d" fill-rule="evenodd"/><path clip-rule="evenodd" d="M371.209 391.502c-4.613-12.174-10.489-28.235-14.497-41.058l22.871-5.409c1.931 10.622 4.471 26.59 6.526 39.903l3.632 23.972-10.013-19.047zm25.244-.95l15.544-.123 4.097-32.67-19.438-7.942z" fill="#fff" fill-rule="evenodd"/><path clip-rule="evenodd" d="M379.728 389.863l10.013 19.047-23.268 3.039-10.826-17.448z" fill="#001d3d" fill-rule="evenodd"/><path clip-rule="evenodd" d="M363.11 419.312c2.055-2.778 3.362-5.539 3.362-7.363l23.269-3.039a98.715 98.715 0 0 1 1.847 4.355c-7.41 8.402-12.726 27.82-14.427 34.711-11.996.044-30.692.044-36.537-.248-2.523-7.372 4.666-14.4 10.794-18.393v.044h21.064v-2.354h-17.25l1.029-.711c.385-.301.773-.601 1.158-.906l.689-.592h13.194v-1.767h-11.329l.707-.737 1.241-1.471h8.537v-1.529z" fill="#001d3d" fill-rule="evenodd"/><path d="M342.559 437.582h28.08m11.489 3.207h42.418"/></g><path clip-rule="evenodd" d="M355.232 427.025h17.25v2.354h-21.064v-.044l2.462-1.484c.455-.252.905-.526 1.352-.826zm4.741-3.976h11.329v1.767h-13.194a32.022 32.022 0 0 0 1.865-1.767zm3.137-3.737l-.53.751-.659.778h8.537v-1.529z" fill="#fff" fill-rule="evenodd"/><path d="M416.225 427.467h-21.062v2.355h21.062zm-1.177-3.976h-18.264v1.767h18.264zm-.845-3.737h-15.802v1.529h15.802z" fill="#fff"/></g></g></svg>